<svg width="41" height="38" viewBox="0 0 41 38" fill="none" xmlns="http://www.w3.org/2000/svg">
<path d="M18.2396 4.67708C18.2396 5.21354 18.1354 5.72396 17.9323 6.21875C17.7291 6.70833 17.4427 7.14583 17.0677 7.52083C16.6927 7.90104 16.2604 8.19271 15.7708 8.39583C15.276 8.59896 14.7656 8.70312 14.2396 8.70312C13.7083 8.70312 13.1979 8.59896 12.7083 8.39583C12.2135 8.19271 11.7812 7.90104 11.4062 7.52083C11.0312 7.14583 10.7448 6.70833 10.5416 6.21875C10.3385 5.72396 10.2344 5.21354 10.2344 4.67708C10.2344 4.14583 10.3385 3.63021 10.5416 3.13542C10.7448 2.64583 11.0312 2.20833 11.4062 1.83333C11.7812 1.45313 12.2135 1.16667 12.7083 0.958333C13.1979 0.755208 13.7083 0.65625 14.2396 0.65625C14.7656 0.65625 15.276 0.755208 15.7708 0.958333C16.2604 1.16667 16.6927 1.45313 17.0677 1.83333C17.4427 2.20833 17.7291 2.64583 17.9323 3.13542C18.1354 3.63021 18.2396 4.14583 18.2396 4.67708Z" fill="#FDF3DD"/>
<path d="M30.8802 4.67708C30.8802 5.21354 30.7812 5.72396 30.5781 6.21875C30.375 6.70833 30.0833 7.14583 29.7083 7.52083C29.3333 7.90104 28.901 8.19271 28.4114 8.39583C27.9219 8.59896 27.4114 8.70312 26.8802 8.70312C26.3489 8.70312 25.8385 8.59896 25.3489 8.39583C24.8594 8.19271 24.4271 7.90104 24.0521 7.52083C23.6771 7.14583 23.3854 6.70833 23.1823 6.21875C22.9791 5.72396 22.8802 5.21354 22.8802 4.67708C22.8802 4.14583 22.9791 3.63021 23.1823 3.13542C23.3854 2.64583 23.6771 2.20833 24.0521 1.83333C24.4271 1.45313 24.8594 1.16667 25.3489 0.958333C25.8385 0.755208 26.3489 0.65625 26.8802 0.65625C27.4114 0.65625 27.9219 0.755208 28.4114 0.958333C28.901 1.16667 29.3333 1.45313 29.7083 1.83333C30.0833 2.20833 30.375 2.64583 30.5781 3.13542C30.7812 3.63021 30.8802 4.14583 30.8802 4.67708Z" fill="#FDF3DD"/>
<path d="M25.4635 19.9896C25.4635 20.6302 25.3385 21.2448 25.0989 21.8385C24.8542 22.4271 24.5052 22.9531 24.0573 23.401C23.6042 23.8541 23.0885 24.2031 22.5 24.4479C21.9114 24.6927 21.2969 24.8177 20.6614 24.8177C20.026 24.8177 19.4114 24.6927 18.8229 24.4479C18.2344 24.2031 17.7135 23.8541 17.2656 23.401C16.8177 22.9531 16.4687 22.4271 16.2239 21.8385C15.9792 21.2448 15.8594 20.6302 15.8594 19.9896C15.8594 19.3489 15.9792 18.7344 16.2239 18.1406C16.4687 17.5521 16.8177 17.026 17.2656 16.5729C17.7135 16.1198 18.2344 15.7708 18.8229 15.526C19.4114 15.2812 20.026 15.1614 20.6614 15.1614C21.2969 15.1614 21.9114 15.2812 22.5 15.526C23.0885 15.7708 23.6042 16.1198 24.0573 16.5729C24.5052 17.026 24.8542 17.5521 25.0989 18.1406C25.3385 18.7344 25.4635 19.3489 25.4635 19.9896Z" fill="#FDF3DD"/>
<path d="M20.6614 37.6927C15.7344 37.6927 13.9635 36.4635 13.7812 36.3229C13.5781 36.1719 13.4583 35.9375 13.4583 35.6823V32.8646C13.4583 28.8698 16.6927 25.625 20.6614 25.625C24.6302 25.625 27.8646 28.8698 27.8646 32.8646V35.6823C27.8646 35.9323 27.7448 36.1719 27.5416 36.3229C27.3594 36.4635 25.5885 37.6927 20.6614 37.6927Z" fill="#FDF3DD"/>
<path d="M14.8177 26.2656C14.0364 23.1146 11.2031 20.7708 7.83332 20.7708C3.86457 20.7708 0.635399 24.0208 0.635399 28.0156V30.8333C0.635399 31.0833 0.749982 31.3229 0.953107 31.4739C1.14061 31.6146 2.91144 32.8437 7.83332 32.8437C9.54165 32.8437 10.8646 32.6927 11.875 32.4948C11.9791 30.0208 13.0937 27.8073 14.8177 26.2656Z" fill="#FDF3DD"/>
<path d="M33.4427 20.7708C30.0833 20.7708 27.2656 23.0989 26.4687 26.2344C28.2187 27.7812 29.3437 30.0104 29.4479 32.5052C30.4531 32.6979 31.7604 32.8437 33.4427 32.8437C38.3698 32.8437 40.1406 31.6146 40.3281 31.4739C40.526 31.3229 40.6458 31.0833 40.6458 30.8333V28.0156C40.6458 24.0208 37.4167 20.7708 33.4427 20.7708Z" fill="#FDF3DD"/>
<path d="M38.2656 15.1614C38.2656 15.8021 38.1458 16.4166 37.901 17.0104C37.6562 17.5989 37.3125 18.1198 36.8594 18.5729C36.4114 19.026 35.8906 19.375 35.3021 19.6198C34.7135 19.8646 34.1041 19.9896 33.4635 19.9896C32.8281 19.9896 32.2135 19.8646 31.6302 19.6198C31.0417 19.375 30.5208 19.026 30.0677 18.5729C29.6198 18.1198 29.2708 17.5989 29.0312 17.0104C28.7864 16.4166 28.6614 15.8021 28.6614 15.1614C28.6614 14.5208 28.7864 13.9062 29.0312 13.3125C29.2708 12.7239 29.6198 12.1979 30.0677 11.7448C30.5208 11.2916 31.0417 10.9427 31.6302 10.6979C32.2135 10.4531 32.8281 10.3333 33.4635 10.3333C34.1041 10.3333 34.7135 10.4531 35.3021 10.6979C35.8906 10.9427 36.4114 11.2916 36.8594 11.7448C37.3125 12.1979 37.6562 12.7239 37.901 13.3125C38.1458 13.9062 38.2656 14.5208 38.2656 15.1614ZM12.6562 15.1614C12.6562 15.8021 12.5364 16.4166 12.2916 17.0104C12.0469 17.5989 11.7031 18.1198 11.25 18.5729C10.8021 19.026 10.2812 19.375 9.69269 19.6198C9.10415 19.8646 8.49477 19.9896 7.85936 19.9896C7.21873 19.9896 6.60936 19.8646 6.02082 19.6198C5.43227 19.375 4.91144 19.026 4.46352 18.5729C4.0104 18.1198 3.66665 17.5989 3.42186 17.0104C3.17707 16.4166 3.05727 15.8021 3.05727 15.1614C3.05727 14.5208 3.17707 13.9062 3.42186 13.3125C3.66665 12.7239 4.0104 12.1979 4.46352 11.7448C4.91144 11.2916 5.43227 10.9427 6.02082 10.6979C6.60936 10.4531 7.21873 10.3333 7.85936 10.3333C8.49477 10.3333 9.10415 10.4531 9.69269 10.6979C10.2812 10.9427 10.8021 11.2916 11.25 11.7448C11.7031 12.1979 12.0469 12.7239 12.2916 13.3125C12.5364 13.9062 12.6562 14.5208 12.6562 15.1614Z" fill="#FDF3DD"/>
<path d="M27.0625 19.9896C27.0625 20.8906 26.875 21.75 26.5416 22.5312C27.3229 21.5364 28.3073 20.7239 29.4219 20.1458C27.9844 18.9635 27.0625 17.1719 27.0625 15.1614C27.0625 13.1406 27.9948 11.3385 29.4479 10.1562C28.6823 9.74477 27.8177 9.50519 26.8802 9.50519C24.2916 9.50519 22.151 11.2291 21.4948 13.6146C24.6302 14.026 27.0625 16.7239 27.0625 19.9896ZM14.2604 15.1614C14.2604 17.1771 13.3281 18.9791 11.8854 20.1614C13.0469 20.7656 14.0677 21.6302 14.8594 22.6927C14.4791 21.8698 14.2604 20.9531 14.2604 19.9896C14.2604 16.7916 16.5885 14.1406 19.6302 13.6406C18.9896 11.2448 16.8385 9.50519 14.2396 9.50519C13.3489 9.50519 12.5208 9.71873 11.7864 10.0885C13.2864 11.2708 14.2604 13.0989 14.2604 15.1614Z" fill="#FDF3DD"/>
</svg>
