<svg width="37" height="41" viewBox="0 0 37 41" fill="none" xmlns="http://www.w3.org/2000/svg">
<path d="M5.64582 20.2812H8.31248C8.48957 20.2812 8.65623 20.25 8.8229 20.1823C8.98436 20.1146 9.13019 20.0156 9.25519 19.8906C9.38019 19.7656 9.47394 19.6198 9.54165 19.4583C9.60936 19.2969 9.64582 19.125 9.64582 18.9479V16.2812C9.64582 16.1042 9.60936 15.9323 9.54165 15.7708C9.47394 15.6042 9.38019 15.4635 9.25519 15.3385C9.13019 15.2135 8.98436 15.1146 8.8229 15.0469C8.65623 14.9792 8.48957 14.9479 8.31248 14.9479H5.64582C5.46873 14.9479 5.29686 14.9792 5.1354 15.0469C4.96873 15.1146 4.8229 15.2135 4.6979 15.3385C4.5729 15.4635 4.47915 15.6042 4.41144 15.7708C4.34373 15.9323 4.30727 16.1042 4.30727 16.2812V18.9479C4.30727 19.125 4.34373 19.2969 4.41144 19.4583C4.47915 19.6198 4.5729 19.7656 4.6979 19.8906C4.8229 20.0156 4.96873 20.1146 5.1354 20.1823C5.29686 20.25 5.46873 20.2812 5.64582 20.2812ZM5.64582 16.2812H8.31248V18.9479H5.64582V16.2812ZM13.6458 20.2812H16.3177C16.4948 20.2812 16.6614 20.25 16.8281 20.1823C16.9896 20.1146 17.1354 20.0156 17.2604 19.8906C17.3854 19.7656 17.4791 19.6198 17.5469 19.4583C17.6146 19.2969 17.651 19.125 17.651 18.9479V16.2812C17.651 16.1042 17.6146 15.9323 17.5469 15.7708C17.4791 15.6042 17.3854 15.4635 17.2604 15.3385C17.1354 15.2135 16.9896 15.1146 16.8281 15.0469C16.6614 14.9792 16.4948 14.9479 16.3177 14.9479H13.6458C13.4687 14.9479 13.3021 14.9792 13.1354 15.0469C12.9739 15.1146 12.8281 15.2135 12.7031 15.3385C12.5781 15.4635 12.4844 15.6042 12.4166 15.7708C12.3489 15.9323 12.3125 16.1042 12.3125 16.2812V18.9479C12.3125 19.125 12.3489 19.2969 12.4166 19.4583C12.4844 19.6198 12.5781 19.7656 12.7031 19.8906C12.8281 20.0156 12.9739 20.1146 13.1354 20.1823C13.3021 20.25 13.4687 20.2812 13.6458 20.2812ZM13.6458 16.2812H16.3177V18.9479H13.6458V16.2812ZM21.651 20.2812H24.3177C24.4948 20.2812 24.6666 20.25 24.8281 20.1823C24.9948 20.1146 25.1354 20.0156 25.2604 19.8906C25.3854 19.7656 25.4844 19.6198 25.5521 19.4583C25.6198 19.2969 25.651 19.125 25.651 18.9479V16.2812C25.651 16.1042 25.6198 15.9323 25.5521 15.7708C25.4844 15.6042 25.3854 15.4635 25.2604 15.3385C25.1354 15.2135 24.9948 15.1146 24.8281 15.0469C24.6666 14.9792 24.4948 14.9479 24.3177 14.9479H21.651C21.4739 14.9479 21.3021 14.9792 21.1406 15.0469C20.9791 15.1146 20.8333 15.2135 20.7083 15.3385C20.5833 15.4635 20.4844 15.6042 20.4166 15.7708C20.3489 15.9323 20.3177 16.1042 20.3177 16.2812V18.9479C20.3177 19.125 20.3489 19.2969 20.4166 19.4583C20.4844 19.6198 20.5833 19.7656 20.7083 19.8906C20.8333 20.0156 20.9791 20.1146 21.1406 20.1823C21.3021 20.25 21.4739 20.2812 21.651 20.2812ZM21.651 16.2812H24.3177V18.9479H21.651V16.2812ZM29.6562 20.2812H32.3229C32.5 20.2812 32.6719 20.25 32.8333 20.1823C32.9948 20.1146 33.1406 20.0156 33.2656 19.8906C33.3906 19.7656 33.4896 19.6198 33.5573 19.4583C33.625 19.2969 33.6562 19.125 33.6562 18.9479V16.2812C33.6562 16.1042 33.625 15.9323 33.5573 15.7708C33.4896 15.6042 33.3906 15.4635 33.2656 15.3385C33.1406 15.2135 32.9948 15.1146 32.8333 15.0469C32.6719 14.9792 32.5 14.9479 32.3229 14.9479H29.6562C29.4791 14.9479 29.3073 14.9792 29.1458 15.0469C28.9791 15.1146 28.8385 15.2135 28.7135 15.3385C28.5885 15.4635 28.4896 15.6042 28.4219 15.7708C28.3541 15.9323 28.3229 16.1042 28.3229 16.2812V18.9479C28.3229 19.125 28.3541 19.2969 28.4219 19.4583C28.4896 19.6198 28.5885 19.7656 28.7135 19.8906C28.8385 20.0156 28.9791 20.1146 29.1458 20.1823C29.3073 20.25 29.4791 20.2812 29.6562 20.2812ZM29.6562 16.2812H32.3229V18.9479H29.6562V16.2812ZM4.30727 26.2864C4.30727 26.4635 4.34373 26.6302 4.41144 26.7969C4.47915 26.9583 4.5729 27.1042 4.6979 27.2292C4.8229 27.3542 4.96873 27.4479 5.1354 27.5156C5.29686 27.5833 5.46873 27.6198 5.64582 27.6198H8.31248C8.48957 27.6198 8.65623 27.5833 8.8229 27.5156C8.98436 27.4479 9.13019 27.3542 9.25519 27.2292C9.38019 27.1042 9.47394 26.9583 9.54165 26.7969C9.60936 26.6302 9.64582 26.4635 9.64582 26.2864V23.6146C9.64582 23.4375 9.60936 23.2708 9.54165 23.1042C9.47394 22.9427 9.38019 22.7969 9.25519 22.6719C9.13019 22.5469 8.98436 22.4531 8.8229 22.3854C8.65623 22.3177 8.48957 22.2812 8.31248 22.2812H5.64582C5.46873 22.2812 5.29686 22.3177 5.1354 22.3854C4.96873 22.4531 4.8229 22.5469 4.6979 22.6719C4.5729 22.7969 4.47915 22.9427 4.41144 23.1042C4.34373 23.2708 4.30727 23.4375 4.30727 23.6146V26.2864ZM5.64582 23.6146H8.31248V26.2864H5.64582V23.6146ZM12.3125 25.9531C12.3125 26.1302 12.3489 26.2969 12.4166 26.4635C12.4844 26.625 12.5781 26.7708 12.7031 26.8958C12.8281 27.0208 12.9739 27.1146 13.1354 27.1823C13.3021 27.25 13.4687 27.2864 13.6458 27.2864H16.3177C16.4948 27.2864 16.6614 27.25 16.8281 27.1823C16.9896 27.1146 17.1354 27.0208 17.2604 26.8958C17.3854 26.7708 17.4791 26.625 17.5469 26.4635C17.6146 26.2969 17.651 26.1302 17.651 25.9531V23.2812C17.651 23.1042 17.6146 22.9375 17.5469 22.7708C17.4791 22.6094 17.3854 22.4635 17.2604 22.3385C17.1354 22.2135 16.9896 22.1198 16.8281 22.0521C16.6614 21.9844 16.4948 21.9479 16.3177 21.9479H13.6458C13.4687 21.9479 13.3021 21.9844 13.1354 22.0521C12.9739 22.1198 12.8281 22.2135 12.7031 22.3385C12.5781 22.4635 12.4844 22.6094 12.4166 22.7708C12.3489 22.9375 12.3125 23.1042 12.3125 23.2812V25.9531ZM13.6458 23.2812H16.3177V25.9531H13.6458V23.2812ZM20.3177 25.9531C20.3177 26.1302 20.3489 26.2969 20.4166 26.4635C20.4844 26.625 20.5833 26.7708 20.7083 26.8958C20.8333 27.0208 20.9791 27.1146 21.1406 27.1823C21.3021 27.25 21.4739 27.2864 21.651 27.2864H24.3177C24.4948 27.2864 24.6666 27.25 24.8281 27.1823C24.9948 27.1146 25.1354 27.0208 25.2604 26.8958C25.3854 26.7708 25.4844 26.625 25.5521 26.4635C25.6198 26.2969 25.651 26.1302 25.651 25.9531V23.2812C25.651 23.1042 25.6198 22.9375 25.5521 22.7708C25.4844 22.6094 25.3854 22.4635 25.2604 22.3385C25.1354 22.2135 24.9948 22.1198 24.8281 22.0521C24.6666 21.9844 24.4948 21.9479 24.3177 21.9479H21.651C21.4739 21.9479 21.3021 21.9844 21.1406 22.0521C20.9791 22.1198 20.8333 22.2135 20.7083 22.3385C20.5833 22.4635 20.4844 22.6094 20.4166 22.7708C20.3489 22.9375 20.3177 23.1042 20.3177 23.2812V25.9531ZM21.651 23.2812H24.3177V25.9531H21.651V23.2812ZM28.3229 25.9531C28.3229 26.1302 28.3541 26.2969 28.4219 26.4635C28.4896 26.625 28.5885 26.7708 28.7135 26.8958C28.8385 27.0208 28.9791 27.1146 29.1458 27.1823C29.3073 27.25 29.4791 27.2864 29.6562 27.2864H32.3229C32.5 27.2864 32.6719 27.25 32.8333 27.1823C32.9948 27.1146 33.1406 27.0208 33.2656 26.8958C33.3906 26.7708 33.4896 26.625 33.5573 26.4635C33.625 26.2969 33.6562 26.1302 33.6562 25.9531V23.2812C33.6562 23.1042 33.625 22.9375 33.5573 22.7708C33.4896 22.6094 33.3906 22.4635 33.2656 22.3385C33.1406 22.2135 32.9948 22.1198 32.8333 22.0521C32.6719 21.9844 32.5 21.9479 32.3229 21.9479H29.6562C29.4791 21.9479 29.3073 21.9844 29.1458 22.0521C28.9791 22.1198 28.8385 22.2135 28.7135 22.3385C28.5885 22.4635 28.4896 22.6094 28.4219 22.7708C28.3541 22.9375 28.3229 23.1042 28.3229 23.2812V25.9531ZM29.6562 23.2812H32.3229V25.9531H29.6562V23.2812ZM4.30727 32.9531C4.30727 33.1302 4.34373 33.3021 4.41144 33.4635C4.47915 33.6302 4.5729 33.7708 4.6979 33.8958C4.8229 34.026 4.96873 34.1198 5.1354 34.1875C5.29686 34.2552 5.46873 34.2917 5.64582 34.2917H8.31248C8.48957 34.2917 8.65623 34.2552 8.8229 34.1875C8.98436 34.1198 9.13019 34.026 9.25519 33.8958C9.38019 33.7708 9.47394 33.6302 9.54165 33.4635C9.60936 33.3021 9.64582 33.1302 9.64582 32.9531V30.2864C9.64582 30.1094 9.60936 29.9375 9.54165 29.776C9.47394 29.6146 9.38019 29.4687 9.25519 29.3437C9.13019 29.2187 8.98436 29.1198 8.8229 29.0521C8.65623 28.9844 8.48957 28.9531 8.31248 28.9531H5.64582C5.46873 28.9531 5.29686 28.9844 5.1354 29.0521C4.96873 29.1198 4.8229 29.2187 4.6979 29.3437C4.5729 29.4687 4.47915 29.6146 4.41144 29.776C4.34373 29.9375 4.30727 30.1094 4.30727 30.2864V32.9531ZM5.64582 30.2864H8.31248V32.9531H5.64582V30.2864ZM12.3125 32.9531C12.3125 33.1302 12.3489 33.3021 12.4166 33.4635C12.4844 33.6302 12.5781 33.7708 12.7031 33.8958C12.8281 34.026 12.9739 34.1198 13.1354 34.1875C13.3021 34.2552 13.4687 34.2917 13.6458 34.2917H16.3177C16.4948 34.2917 16.6614 34.2552 16.8281 34.1875C16.9896 34.1198 17.1354 34.026 17.2604 33.8958C17.3854 33.7708 17.4791 33.6302 17.5469 33.4635C17.6146 33.3021 17.651 33.1302 17.651 32.9531V30.2864C17.651 30.1094 17.6146 29.9375 17.5469 29.776C17.4791 29.6146 17.3854 29.4687 17.2604 29.3437C17.1354 29.2187 16.9896 29.1198 16.8281 29.0521C16.6614 28.9844 16.4948 28.9531 16.3177 28.9531H13.6458C13.4687 28.9531 13.3021 28.9844 13.1354 29.0521C12.9739 29.1198 12.8281 29.2187 12.7031 29.3437C12.5781 29.4687 12.4844 29.6146 12.4166 29.776C12.3489 29.9375 12.3125 30.1094 12.3125 30.2864V32.9531ZM13.6458 30.2864H16.3177V32.9531H13.6458V30.2864ZM20.3177 32.9531C20.3177 33.1302 20.3489 33.3021 20.4166 33.4635C20.4844 33.6302 20.5833 33.7708 20.7083 33.8958C20.8333 34.026 20.9791 34.1198 21.1406 34.1875C21.3021 34.2552 21.4739 34.2917 21.651 34.2917H24.3177C24.4948 34.2917 24.6666 34.2552 24.8281 34.1875C24.9948 34.1198 25.1354 34.026 25.2604 33.8958C25.3854 33.7708 25.4844 33.6302 25.5521 33.4635C25.6198 33.3021 25.651 33.1302 25.651 32.9531V30.2864C25.651 30.1094 25.6198 29.9375 25.5521 29.776C25.4844 29.6146 25.3854 29.4687 25.2604 29.3437C25.1354 29.2187 24.9948 29.1198 24.8281 29.0521C24.6666 28.9844 24.4948 28.9531 24.3177 28.9531H21.651C21.4739 28.9531 21.3021 28.9844 21.1406 29.0521C20.9791 29.1198 20.8333 29.2187 20.7083 29.3437C20.5833 29.4687 20.4844 29.6146 20.4166 29.776C20.3489 29.9375 20.3177 30.1094 20.3177 30.2864V32.9531ZM21.651 30.2864H24.3177V32.9531H21.651V30.2864Z" fill="#FDF3DD"/>
<mask id="mask0_1_814" style="mask-type:luminance" maskUnits="userSpaceOnUse" x="0" y="0" width="37" height="41">
<path d="M0.973938 0.942719H36.9896V40.9636H0.973938V0.942719Z" fill="white"/>
</mask>
<g mask="url(#mask0_1_814)">
<path d="M33.6562 3.60417H31.6562V3.27083C31.6562 2.96354 31.5989 2.66667 31.4791 2.38021C31.3594 2.09375 31.1927 1.83854 30.9739 1.61979C30.7552 1.40104 30.5 1.23437 30.2135 1.11458C29.9271 0.994791 29.6302 0.9375 29.3229 0.9375C29.0104 0.9375 28.7135 0.994791 28.4271 1.11458C28.1406 1.23437 27.8906 1.40104 27.6719 1.61979C27.4531 1.83854 27.2812 2.09375 27.1666 2.38021C27.0469 2.66667 26.9896 2.96354 26.9896 3.27083V3.60417H21.3177V3.27083C21.3177 2.96354 21.2604 2.66667 21.1406 2.38021C21.0208 2.09375 20.8541 1.83854 20.6354 1.61979C20.4166 1.40104 20.1614 1.23437 19.875 1.11458C19.5885 0.994791 19.2916 0.9375 18.9844 0.9375C18.6719 0.9375 18.375 0.994791 18.0885 1.11458C17.8021 1.23437 17.5521 1.40104 17.3333 1.61979C17.1146 1.83854 16.9427 2.09375 16.8281 2.38021C16.7083 2.66667 16.651 2.96354 16.651 3.27083V3.60417H10.9791V3.27083C10.9791 2.96354 10.9219 2.66667 10.8021 2.38021C10.6823 2.09375 10.5156 1.83854 10.2969 1.61979C10.0781 1.40104 9.8229 1.23437 9.53644 1.11458C9.24998 0.994791 8.95311 0.9375 8.64581 0.9375C8.33331 0.9375 8.03644 0.994791 7.74998 1.11458C7.46352 1.23437 7.21352 1.40104 6.99477 1.61979C6.77602 1.83854 6.60415 2.09375 6.48956 2.38021C6.36977 2.66667 6.31248 2.96354 6.31248 3.27083V3.60417H4.30727C3.86977 3.60417 3.44269 3.69271 3.03644 3.85938C2.62498 4.03125 2.2656 4.27083 1.9531 4.58333C1.6406 4.89583 1.40102 5.25521 1.22915 5.66667C1.06248 6.07292 0.973938 6.5 0.973938 6.94271V27.6198C0.973938 27.8021 1.04165 27.9583 1.17185 28.0885C1.30206 28.2188 1.45831 28.2865 1.6406 28.2865C1.8281 28.2865 1.98435 28.2188 2.11456 28.0885C2.24477 27.9583 2.30727 27.8021 2.30727 27.6198V12.9427H35.6562V28.9531C35.6562 29.1354 35.5937 29.2969 35.4635 29.4271C35.3333 29.5573 35.1771 29.6198 34.9896 29.6198H31.6562C31.2135 29.6198 30.7864 29.7031 30.3802 29.875C29.9739 30.0469 29.6094 30.2865 29.2969 30.599C28.9844 30.9115 28.7448 31.2708 28.5781 31.6771C28.4062 32.0885 28.3229 32.5156 28.3229 32.9531V36.2917C28.3229 36.474 28.2552 36.6302 28.125 36.7604C27.9948 36.8906 27.8385 36.9583 27.6562 36.9583L4.30727 36.9167C4.04165 36.9167 3.78644 36.8646 3.54165 36.7656C3.29685 36.6615 3.08331 36.5156 2.89581 36.3281C2.70831 36.1406 2.56248 35.9271 2.45831 35.6823C2.35935 35.4375 2.30727 35.1823 2.30727 34.9167V32.9531C2.30727 32.7708 2.24477 32.6146 2.11456 32.4844C1.98435 32.3542 1.8281 32.2865 1.6406 32.2865C1.45831 32.2865 1.30206 32.3542 1.17185 32.4844C1.04165 32.6146 0.973938 32.7708 0.973938 32.9531V37.625C0.973938 38.0677 1.06248 38.4896 1.22915 38.901C1.40102 39.3073 1.6406 39.6667 1.9531 39.9792C2.2656 40.2917 2.62498 40.5365 3.03644 40.7031C3.44269 40.875 3.86977 40.9583 4.30727 40.9583H33.6562C34.0989 40.9583 34.526 40.875 34.9323 40.7031C35.3385 40.5365 35.7031 40.2917 36.0156 39.9792C36.3281 39.6667 36.5677 39.3073 36.7396 38.901C36.9062 38.4896 36.9896 38.0677 36.9896 37.625V6.94271C36.9896 6.5 36.9062 6.07292 36.7396 5.66667C36.5677 5.25521 36.3281 4.89583 36.0156 4.58333C35.7031 4.27083 35.3385 4.03125 34.9323 3.85938C34.526 3.69271 34.0989 3.60417 33.6562 3.60417ZM28.3229 3.27083C28.3229 2.99479 28.4166 2.76042 28.6146 2.56771C28.8073 2.36979 29.0469 2.27083 29.3229 2.27083C29.5989 2.27083 29.8333 2.36979 30.0312 2.56771C30.2239 2.76042 30.3229 2.99479 30.3229 3.27083V5.94271C30.3229 6.21875 30.2239 6.45313 30.0312 6.64583C29.8333 6.84375 29.5989 6.94271 29.3229 6.94271C29.0469 6.94271 28.8073 6.84375 28.6146 6.64583C28.4166 6.45313 28.3229 6.21875 28.3229 5.94271V3.27083ZM17.9844 3.27083C17.9844 2.99479 18.0781 2.76042 18.276 2.56771C18.4687 2.36979 18.7083 2.27083 18.9844 2.27083C19.2604 2.27083 19.4948 2.36979 19.6927 2.56771C19.8854 2.76042 19.9844 2.99479 19.9844 3.27083V5.94271C19.9844 6.21875 19.8854 6.45313 19.6927 6.64583C19.4948 6.84375 19.2604 6.94271 18.9844 6.94271C18.7083 6.94271 18.4687 6.84375 18.276 6.64583C18.0781 6.45313 17.9844 6.21875 17.9844 5.94271V3.27083ZM7.64581 3.27083C7.64581 2.99479 7.73956 2.76042 7.93748 2.56771C8.1354 2.36979 8.36977 2.27083 8.64581 2.27083C8.92185 2.27083 9.15623 2.36979 9.35415 2.56771C9.54685 2.76042 9.64581 2.99479 9.64581 3.27083V5.94271C9.64581 6.21875 9.54685 6.45313 9.35415 6.64583C9.15623 6.84375 8.92185 6.94271 8.64581 6.94271C8.36977 6.94271 8.1354 6.84375 7.93748 6.64583C7.73956 6.45313 7.64581 6.21875 7.64581 5.94271V3.27083ZM2.30727 11.6094V6.94271C2.30727 6.67708 2.35935 6.42188 2.45831 6.17708C2.56248 5.93229 2.70831 5.71354 2.89581 5.52604C3.08331 5.33854 3.29685 5.19271 3.54165 5.09375C3.78644 4.98958 4.04165 4.94271 4.30727 4.94271H6.31248V5.94271C6.31248 6.25 6.36977 6.54687 6.48956 6.83333C6.60415 7.11979 6.77602 7.375 6.99477 7.59375C7.21352 7.8125 7.46352 7.97917 7.74998 8.09896C8.03644 8.21354 8.33331 8.27604 8.64581 8.27604C8.95311 8.27604 9.24998 8.21354 9.53644 8.09896C9.8229 7.97917 10.0781 7.8125 10.2969 7.59375C10.5156 7.375 10.6823 7.11979 10.8021 6.83333C10.9219 6.54687 10.9791 6.25 10.9791 5.94271V4.94271H16.651V5.94271C16.651 6.25 16.7083 6.54687 16.8281 6.83333C16.9427 7.11979 17.1146 7.375 17.3333 7.59375C17.5521 7.8125 17.8021 7.97917 18.0885 8.09896C18.375 8.21354 18.6719 8.27604 18.9844 8.27604C19.2916 8.27604 19.5885 8.21354 19.875 8.09896C20.1614 7.97917 20.4166 7.8125 20.6354 7.59375C20.8541 7.375 21.0208 7.11979 21.1406 6.83333C21.2604 6.54687 21.3177 6.25 21.3177 5.94271V4.94271H26.9896V5.94271C26.9896 6.25 27.0469 6.54687 27.1666 6.83333C27.2812 7.11979 27.4531 7.375 27.6719 7.59375C27.8906 7.8125 28.1406 7.97917 28.4271 8.09896C28.7135 8.21354 29.0104 8.27604 29.3229 8.27604C29.6302 8.27604 29.9271 8.21354 30.2135 8.09896C30.5 7.97917 30.7552 7.8125 30.9739 7.59375C31.1927 7.375 31.3594 7.11979 31.4791 6.83333C31.5989 6.54687 31.6562 6.25 31.6562 5.94271V4.94271H33.6562C33.9219 4.94271 34.1771 4.98958 34.4219 5.09375C34.6666 5.19271 34.8854 5.33854 35.0729 5.52604C35.2604 5.71354 35.4062 5.93229 35.5052 6.17708C35.6094 6.42188 35.6562 6.67708 35.6562 6.94271V11.6094H2.30727ZM29.6562 32.9531C29.6562 32.6875 29.7083 32.4323 29.8073 32.1875C29.9114 31.9427 30.0521 31.7292 30.2396 31.5417C30.4271 31.3542 30.6458 31.2083 30.8906 31.1042C31.1354 31.0052 31.3906 30.9531 31.6562 30.9531H34.7135L29.6562 36.0156V32.9531ZM33.6562 39.625H4.30727C4.04165 39.625 3.78123 39.5729 3.53123 39.4688C3.28123 39.3594 3.06248 39.2135 2.87498 39.0156C2.68748 38.8229 2.54165 38.599 2.44269 38.349C2.34894 38.099 2.30206 37.8385 2.30727 37.5677C2.89581 38.0156 3.56248 38.2448 4.30206 38.25L27.875 38.2917C28.7969 38.2917 29.5885 37.9635 30.2448 37.3125L35.6562 31.901V37.625C35.6562 37.8906 35.6094 38.1458 35.5052 38.3906C35.4062 38.6354 35.2604 38.8542 35.0729 39.0417C34.8854 39.2292 34.6666 39.3698 34.4219 39.474C34.1771 39.5729 33.9219 39.625 33.6562 39.625Z" fill="#FDF3DD"/>
</g>
</svg>
