<svg width="51" height="41" viewBox="0 0 51 41" fill="none" xmlns="http://www.w3.org/2000/svg">
<mask id="mask0_1_177" style="mask-type:luminance" maskUnits="userSpaceOnUse" x="0" y="0" width="51" height="41">
<path d="M0 0H50.9896V40.8906H0V0Z" fill="white"/>
</mask>
<g mask="url(#mask0_1_177)">
<path d="M9.29965 29.9739C8.46632 29.1458 8.36736 27.8489 9.05486 26.8906C9.31528 26.526 9.61215 26.1198 9.94549 25.6823C10.4247 25.0521 11.1538 24.7083 11.8882 24.7083C12.2892 24.7083 12.6851 24.8073 13.0497 25.0156C14.6069 25.9062 16.0861 26.8542 17.4455 27.8333C18.0913 28.3021 18.4611 29.0417 18.4507 29.8489C18.4403 30.6614 18.0549 31.3854 17.3934 31.8333C16.7372 32.2864 16.1642 32.651 15.6955 32.9375C14.9872 33.3646 14.0965 33.3854 13.3674 33C11.5497 32.0312 10.1538 30.8229 9.29965 29.9739ZM7.22674 25.8125C7.13299 25.7917 6.82048 25.6875 6.7684 25.3125C6.60694 24.2344 6.69548 23.151 7.04965 22.0833C7.05486 22.0833 7.06528 22.0781 7.07569 22.0781C7.07569 22.0781 7.0809 22.0781 7.08611 22.0833C7.49236 22.25 8.13819 22.526 8.94028 22.901C9.11215 22.9792 9.24236 23.1354 9.28403 23.3229C9.3309 23.5208 9.28924 23.7187 9.16944 23.875C8.68507 24.5 8.25799 25.0677 7.8934 25.5729C7.71111 25.8229 7.42465 25.8646 7.22674 25.8125ZM8.20069 19.8646C8.61215 19.2604 9.3882 18.1354 10.0288 17.3906C10.1226 17.2864 10.2372 17.2187 10.3726 17.1979C10.5497 17.1719 10.8101 17.1406 11.1538 17.1406C11.7111 17.1406 12.4872 17.2135 13.4976 17.4687C13.7059 17.5208 13.8622 17.6771 13.9247 17.8906C13.9924 18.1198 13.9299 18.3594 13.7684 18.5312C12.8674 19.4739 11.9715 20.4739 11.1017 21.4948C10.9142 21.7135 10.6174 21.7708 10.3517 21.651C9.61736 21.3021 8.98194 21.0156 8.48715 20.8021C8.30486 20.7292 8.17465 20.5781 8.12257 20.3958C8.06528 20.2083 8.09653 20.026 8.20069 19.8646ZM13.0965 14.5312C14.1434 13.6771 15.2736 12.875 16.4559 12.151C16.5705 12.0781 16.6903 12.0469 16.8257 12.0521C17.2788 12.0521 18.0184 12.0937 19.0132 12.276C19.2528 12.3177 19.4351 12.4896 19.4924 12.7239C19.5444 12.9219 19.5132 13.2083 19.2684 13.4062C18.2267 14.2552 17.1799 15.1771 16.1538 16.151C15.9924 16.3021 15.7476 16.3489 15.5132 16.2656C14.7736 16.0052 14.0601 15.7969 13.3934 15.6562C13.133 15.5989 12.9403 15.4167 12.8778 15.1614C12.8517 15.0469 12.8205 14.7552 13.0965 14.5312ZM22.3934 9.26041C22.7528 9.11978 23.1434 9.04166 23.5236 9.02603C24.6017 8.97916 25.3569 8.97395 25.8674 8.98957C25.5809 9.15624 25.2528 9.34374 24.9559 9.51041C24.0392 10.0312 22.9976 10.6146 22.3153 11.0937C22.159 11.2031 21.9455 11.2292 21.7476 11.1719C20.9819 10.9323 20.0601 10.8125 19.3153 10.7135C19.2163 10.7031 19.1122 10.6875 19.008 10.6771C19.758 10.3125 21.0184 9.78124 22.3934 9.26041ZM26.2424 10.6354C26.8361 10.2917 27.4403 9.96353 28.0549 9.65103C28.2632 9.54686 28.4976 9.48957 28.7267 9.48957C28.8361 9.48957 28.9507 9.5052 29.0497 9.53124C31.008 10.0052 32.758 10.8177 34.2632 11.9427C34.8674 12.401 35.0132 13.2812 34.5861 13.9062C34.0861 14.6406 33.5913 15.3489 33.0965 16.0312C32.8778 16.3333 32.5549 16.5312 32.1747 16.5833C31.8049 16.6406 31.4299 16.5417 31.133 16.3125C29.534 15.0677 27.9142 14 26.3205 13.1354C25.8465 12.875 25.5549 12.401 25.5497 11.8594C25.5444 11.3437 25.8049 10.8906 26.2424 10.6354ZM31.3622 7.13541C30.3778 7.23437 28.5184 7.91666 28.5184 7.91666L25.9715 7.79687C27.8413 7.14582 31.3622 7.13541 31.3622 7.13541ZM33.4247 7.57291C34.7997 7.78124 35.9976 8.17707 36.9819 8.74478C37.1955 8.86978 37.3934 9.0052 37.5965 9.16145C37.3674 9.55728 37.133 9.94791 36.8986 10.3385C36.7319 10.6042 36.4663 10.7917 36.1642 10.8489C35.8622 10.9114 35.5705 10.8385 35.3309 10.6562C34.0236 9.67186 32.5497 8.89582 30.9351 8.33853C31.6226 8.05728 32.2684 7.82291 32.8882 7.61978C33.0549 7.56249 33.2528 7.54686 33.4247 7.57291ZM39.0601 18.4687C39.1747 18.7708 39.1799 19.0989 39.0653 19.3958C38.8882 19.8437 38.7007 20.2969 38.4924 20.7552C38.3205 21.1406 37.9767 21.401 37.5549 21.4739C37.133 21.5521 36.7007 21.4062 36.409 21.1042C35.7528 20.4114 35.0705 19.7396 34.3882 19.0989C33.8986 18.6458 33.8309 17.9271 34.2215 17.3958C34.6538 16.8021 35.0861 16.1927 35.5184 15.5677C35.7632 15.2187 36.159 15.0104 36.5861 15.0104H36.6122C37.0236 15.0208 37.383 15.2187 37.6017 15.5573C38.1642 16.4427 38.6538 17.4219 39.0601 18.4687ZM37.7319 12.2396C37.9038 11.9583 38.1069 11.5781 38.3049 11.1927C38.4507 10.9062 38.6486 10.5208 38.7997 10.2708C39.1851 10.7969 39.9038 12.0364 40.1122 12.9219C40.3309 13.8229 40.2736 15.8229 40.0965 16.7969C40.0288 16.6771 39.9611 16.5469 39.8934 16.4219C39.3413 15.3854 38.508 13.8229 37.7997 12.9844C37.6174 12.7656 37.5861 12.4687 37.7319 12.2396ZM36.1538 24.8177C35.784 25.3281 34.8361 26.6354 33.9247 27.7812C33.7059 28.0625 33.3882 28.2344 33.034 28.2552C32.6642 28.2812 32.3361 28.1562 32.0705 27.9062C31.1226 26.9948 30.1851 26.125 29.2892 25.3281C29.0444 25.1094 28.8986 24.8073 28.8778 24.4687C28.8622 24.1354 28.9715 23.8177 29.1903 23.5781C30.034 22.6458 30.8569 21.6875 31.6434 20.7292C31.8726 20.4427 32.1955 20.2708 32.5392 20.25C32.8882 20.2292 33.2111 20.3542 33.4767 20.6042C34.3465 21.4271 35.2215 22.3125 36.0653 23.2344C36.4663 23.6667 36.5028 24.3333 36.1538 24.8177ZM30.7319 31.0364C29.5184 32.0312 28.2632 32.8385 27.0028 33.4375C26.4351 33.7031 25.7736 33.5364 25.3882 33.0208C24.8361 32.2864 24.2267 31.5625 23.5705 30.8646C23.3413 30.6146 23.2215 30.2917 23.2372 29.9531C23.258 29.6146 23.4038 29.3021 23.6538 29.0781C24.5392 28.2969 25.4351 27.4583 26.3153 26.5885C26.5705 26.3333 26.9038 26.2083 27.2319 26.2083C27.5184 26.2083 27.8049 26.3073 28.034 26.5104C28.9299 27.3021 29.8726 28.1667 30.8257 29.0833C31.0913 29.3385 31.2319 29.6875 31.2163 30.0625C31.2007 30.4427 31.0236 30.7969 30.7319 31.0364ZM19.2476 16.8802C19.1903 16.151 19.4819 15.4583 20.0497 14.9896C20.4715 14.6406 20.8986 14.3021 21.3309 13.9583C21.7111 13.6667 22.1694 13.5156 22.633 13.5156C22.9247 13.5156 23.2163 13.5729 23.4924 13.6927C25.4247 14.5417 27.4038 15.7031 29.3674 17.1458C29.8569 17.5104 30.1694 18.0417 30.2424 18.6458C30.3153 19.2656 30.133 19.875 29.7267 20.3594C29.284 20.8854 28.8465 21.3906 28.4194 21.875C27.6903 22.7031 26.3361 22.8229 25.4611 22.1354C23.6694 20.7448 21.9299 19.5469 20.2997 18.5781C19.6851 18.2135 19.3049 17.5937 19.2476 16.8802ZM23.8205 23.0469C24.3361 23.4375 24.6486 24.0312 24.6851 24.6823C24.7215 25.3594 24.4559 26.0156 23.9663 26.4792C23.5757 26.8489 23.1955 27.1979 22.8205 27.5312C22.0288 28.2448 20.8465 28.2708 20.0028 27.5989C18.4142 26.3281 16.6382 25.1094 14.7267 23.9739C14.1486 23.6302 13.758 23.0521 13.6642 22.3854C13.5653 21.7083 13.7736 21.0312 14.2424 20.526C14.5236 20.2187 14.8153 19.9114 15.1122 19.5989C15.8101 18.8698 16.8726 18.6875 17.7632 19.151C19.6382 20.1146 21.6799 21.4271 23.8205 23.0469ZM23.4455 34.1354C23.3153 34.4844 23.0236 34.7344 22.659 34.7917C21.4194 35 20.2163 35.0469 19.0861 34.9323C18.5757 34.8802 18.3049 34.5052 18.2215 34.1719C18.133 33.8333 18.1903 33.3646 18.6226 33.0625C19.2319 32.6406 19.8986 32.1562 20.6226 31.5937C20.8101 31.4531 21.034 31.3802 21.2528 31.3802C21.5184 31.3802 21.7736 31.4792 21.9663 31.6771C22.4403 32.1614 22.8778 32.6458 23.2736 33.1198C23.508 33.401 23.5757 33.7812 23.4455 34.1354ZM19.6174 40.2031C25.3465 40.2031 33.3413 38.5729 40.6226 28.3542C41.1851 27.5677 41.6955 26.8177 42.1747 26.0833C42.2788 25.9271 42.383 25.7708 42.4819 25.6146C42.9351 24.9167 43.3569 24.2396 43.7319 23.5937C43.7997 23.4844 43.8517 23.3802 43.9142 23.2708C44.2476 22.6927 44.5549 22.1354 44.8361 21.5989C44.8882 21.4896 44.9507 21.375 45.008 21.2708C45.2997 20.6875 45.5601 20.1354 45.7892 19.6042C45.8465 19.4792 45.8934 19.3594 45.9455 19.2344C46.1538 18.7396 46.3361 18.2604 46.4924 17.8073C46.508 17.7656 46.5236 17.7187 46.5392 17.6771C46.7007 17.2031 46.8257 16.7552 46.9299 16.3177C46.9559 16.2031 46.9872 16.0937 47.008 15.9844C47.1017 15.5677 47.1747 15.1719 47.2215 14.7969C47.2319 14.7135 47.2372 14.6406 47.2476 14.5573C47.2788 14.2448 47.2944 13.9427 47.2997 13.6562C47.2997 13.5625 47.3049 13.4687 47.2997 13.3802C47.2944 13.0625 47.2684 12.7604 47.2319 12.4687C47.2163 12.3802 47.2007 12.2917 47.1851 12.1979C47.1434 11.9635 47.0913 11.7396 47.0288 11.5208C46.4715 9.60416 45.1382 8.45312 43.7684 7.68228L50.8986 1.98436L47.4403 -0.442719L39.8465 5.41145C39.8465 5.41145 39.1538 4.85937 37.5809 4.09374C36.3934 3.52082 35.0444 3.28645 33.4872 3.28645C31.3465 3.28645 28.8205 3.72916 25.7788 4.30728C22.0444 5.02082 9.2684 8.42186 3.0809 21.8281C0.950694 26.4427 1.50278 32.2917 0.877777 35.1406C0.382987 37.3906 0.757986 38.5937 1.59653 39.0885C1.75278 39.1823 1.91944 39.2552 2.10694 39.2969C2.29444 39.3437 2.49236 39.3698 2.7059 39.3698C2.82569 39.3698 2.95069 39.3594 3.0809 39.3489C3.0809 39.3489 9.2684 39.5573 14.1955 39.875C15.5601 39.9635 17.4247 40.2031 19.6174 40.2031Z" fill="#FDF3DD"/>
</g>
</svg>
