<svg width="57" height="44" viewBox="0 0 57 44" fill="none" xmlns="http://www.w3.org/2000/svg">
<mask id="mask0_1_187" style="mask-type:luminance" maskUnits="userSpaceOnUse" x="0" y="0" width="57" height="44">
<path d="M0 0H56.6406V43.9688H0V0Z" fill="white"/>
</mask>
<g mask="url(#mask0_1_187)">
<path fill-rule="evenodd" clip-rule="evenodd" d="M31.3229 19.1719C32.9948 19.9375 33.8281 22.1979 33.2813 23.9584C33.2709 23.9896 33.1771 24.2969 33.0677 24.3802C33.0573 24.375 33.0156 24.4115 33.0104 24.4167C32.974 24.3906 32.9636 24.3854 32.9636 24.3386C33.1198 22.6823 32.2917 20.5 31.3229 19.1719ZM37.1146 16.9844C38.8177 17.5052 39.2969 20.7552 38.0209 22.1459C37.7865 21.3802 38.7761 19.6563 37.1146 16.9844ZM41.4115 16.2604C42.5209 17.7084 42.5573 18.1511 42.0886 19.8438C41.7136 18.3906 41.4792 17.7917 41.4115 16.2604ZM19.7448 22.5781C21.4115 23.4896 22.2552 25.5625 21.5417 27.4219C21.4844 27.5729 21.4063 27.7448 21.2396 27.7552C21.2396 25.375 20.9584 24.5 19.7448 22.5781ZM14.8646 24.2188C16.4948 24.7813 16.4271 26.1198 16.0886 27.5834C15.6354 26.1927 15.5781 25.4531 14.8646 24.2188ZM1.85419 25.7969C-0.395813 27.9584 5.08856 29.1094 10.7969 30.1354C14.9427 30.8854 19.2188 31.8125 20.6823 31.8386C23.1406 31.9011 26.1042 31.5886 30.724 30.2865C36.8073 28.5625 41.0469 25.5104 45.849 21.474C48.6615 18.7031 46.3698 17.3073 45.0938 14.5261C43.6459 11.974 43.5573 11.1511 40.5209 10.6354C37.3334 10.0938 33.8438 10.3959 30.7813 10.4531C25.5 10.5625 21.5469 10.8334 16.625 12.7917C8.02606 16.2136 7.88544 20.7448 1.85419 25.7969ZM56.4792 43.7709C56.6354 43.7813 56.5417 43.8334 56.5521 43.9479C56.4271 43.974 56.4219 43.8281 56.4792 43.7709ZM32.9115 25.5209C35.4531 24.3802 34.2917 19.4531 31.5417 18.4115C29.3438 17.5781 28.3438 18.625 28.1354 19.0052C28.0729 19.1354 29.3959 20.1823 29.9375 21.9271C30.3594 23.2917 30.1094 24.875 30.8802 25.5209C31.3177 25.8854 32.4792 25.7136 32.9115 25.5209ZM35.3959 11.8281C34.9896 11.9115 34.8125 12.1094 34.7709 12.4011C34.474 11.7813 33.6459 11.1615 32.099 11.1146C31.1354 11.0834 30.6042 11.7656 31.1042 12.3959C30.7969 12.3698 30.5156 12.4011 30.2813 12.5C30 11.7552 28.2396 11.5313 27.2761 11.724C26.3125 11.9219 26.1459 12.5209 27.0625 13.125C26.7604 13.1302 26.1615 13.1719 25.9063 13.3125C25.6875 12.6511 24.8802 12.1302 23.2917 12.724C22.9167 12.8698 22.5521 13.0313 22.8334 13.4636C22.8854 13.3802 22.9636 13.1667 23 13.1563V13.1615L22.9948 13.1667C23.5417 13.0677 24.7761 12.9636 25.2136 13.3906C25.1615 13.4636 25.3854 13.7969 25.0677 14.1823H25.0834C24.7292 14.3334 23.4844 13.7865 23.0677 13.6667C23.2552 13.8646 23.4323 14.0417 23.6042 14.1771C22.7552 13.8594 21.8594 13.8229 21.0886 14.25C20.4011 13.0834 16.0365 13.8542 17.7761 15.3854C17.8334 15.4323 17.9688 15.5313 18.1459 15.6459C17.5313 15.6042 16.9636 15.7709 16.5573 16.1823C16.5052 16.2396 16.4531 16.2969 16.4115 16.349C15.6042 15.6198 14 15.9688 13.2136 16.5938C11.0417 18.3386 8.56773 21.8802 8.56773 21.8802C8.46877 22.0104 8.33335 22.224 8.20835 22.5625C6.38544 26.8698 10.5209 28.2656 14.3177 29.2604C24.4636 31.9271 34.1406 28.3125 42.125 22.1667C44.6563 20.2136 44.2969 17.9063 43.3177 15.8542C42.7604 14.6823 41.7865 13.4688 40.2604 12.6927C38.724 11.9167 36.6198 11.5886 35.3959 11.8281ZM11.7552 26.1198C12.7084 25.7917 12.7292 25.0886 12.4636 24.3073C12.2656 23.724 12.5469 23.2031 12.1615 22.2709C11.8906 21.599 11.2292 20.2917 10.1823 21.6146C8.93231 23.1875 11.4531 26.2188 11.7552 26.1198ZM29.2448 12.4323C27.8646 11.9063 26.7084 12.4271 27.8229 12.6927C27.8959 12.7084 28.6146 13.0573 29.1667 13.1615C29.8073 13.2813 30.2188 12.8021 29.2448 12.4323ZM32.3594 11.8386C31.3959 11.7917 31.8281 12.3125 32.2865 12.6406C32.7656 12.9844 33.3177 13.1406 33.5365 13.3021C34.5834 14.0834 35.5 11.9844 32.3594 11.8386ZM38.3906 14.3073C38.7448 15.1459 38.974 15.6979 39.4427 15.5729C39.875 15.474 40.7292 14.724 39.5834 13.5521C38.8854 12.8438 37.6302 12.5677 37.7813 13.4636C37.8229 13.6823 38.2084 13.875 38.3906 14.3073ZM39.8854 16.2396C41.3646 18.2448 40.4375 20.8334 41.9948 20.4011C43.1354 20.0834 43.3594 17.3021 42.0104 16.1771C40.9271 15.2813 39.8021 15.8959 39.8854 16.2396ZM36.2604 15.2552C38.0261 16.1094 37.9896 13.5104 36.0052 12.6094C35.4219 12.3386 35.1771 12.7136 35.2917 13.2188C35.3646 13.5104 35.6667 13.8229 35.8125 14.1667C36 14.625 36.0729 15.1667 36.2604 15.2552ZM34.4636 15.5573C34.3125 15.2084 34.1354 14.8959 33.9323 14.625C32.4427 12.5781 29.7084 12.5573 30.4427 13.9063C30.9688 14.8698 31.7552 14.1927 32.4271 16.5156C32.6719 17.3802 34.0469 17.4011 34.4479 16.8177C34.7865 16.3281 34.4896 15.7552 34.4636 15.5573ZM36.25 22.5886C36.8646 23.75 38.5156 23.25 39.0781 22.3125C40.2761 20.3334 39.4219 17.1927 37.5573 16.2448C36.1198 15.5 35.4167 16.2031 35.0104 16.7344C34.2448 17.7136 34.9375 18.6511 35.5156 19.9271C35.8959 20.7761 35.8125 21.7448 36.25 22.5886ZM14.3698 17.25C14.6719 17.6459 15.4636 17.8438 15.7761 18.0156C16.0156 18.1563 16.3386 17.7136 16.3698 17.4375C16.4063 17.1146 15.8386 16.7656 15.5313 16.7292C14.8073 16.6406 13.9167 16.6511 14.3698 17.25ZM20.8073 14.4271L20.7917 14.4167L20.8021 14.4323L20.8073 14.4271ZM20.1459 14.2136C19.1094 14.0104 18.0313 14.349 18.1719 14.7761V14.7604C18.4584 15.0104 19.8906 15.6771 19.8959 15.849C19.8906 15.849 19.8906 15.849 19.8854 15.8542H19.8906C19.9011 15.8542 19.9896 15.7813 20.1042 15.6615C20.0625 15.3334 20.1719 14.9948 20.5156 14.6615C20.4792 14.5052 20.3646 14.349 20.1459 14.2136ZM25.9584 13.6563C25.9636 13.9271 25.8906 14.1979 25.7292 14.4063C25.9375 15.0156 26.8594 15.6615 27.1563 16.0261C27.5 16.5365 27.75 17.0417 28.375 17.3177C28.9636 17.5834 29.8386 17.6406 30.2031 16.5052C30.7865 14.6667 27.5469 12.9219 25.9584 13.6563ZM26.6667 18.0834C26.6771 17.7084 26.4219 17.2084 25.8802 16.5261C23.6302 13.7084 19.4271 15.0104 21.7448 16.3854C22.9271 17.0886 23.3959 17.6511 24.0261 18.8229L24.0469 18.849C24.0417 18.8386 24.0313 18.8334 24.0313 18.8281C24.375 19.2448 25.3646 19.4375 25.9844 19.1719C26.4323 18.9896 26.599 18.474 26.6667 18.0834ZM22.6927 21.3594C24.5781 24.0156 24.0469 26.3281 24.7292 27.2084C25.4011 28.0834 30.0521 27.7865 27.9896 22.3021C27.2917 20.4531 22.6354 18.2917 22.6927 21.3594ZM20.6511 20.7813C22.5573 19.6979 19.9688 16.1406 17.4115 16.6511C16.8854 16.75 16.6823 17.3073 16.8594 17.5938C17.1042 17.9896 17.9115 18.1927 18.3021 18.8959C19.0938 20.3386 19.4271 20.9063 20.6511 20.7813ZM16.8438 21.8177C17.3334 21.2656 17.3906 20.3438 16.9115 19.875C15.6771 18.6771 12.2396 18.6615 13.0417 19.9531C13.2292 20.2552 13.9323 20.4271 14.6146 21.224C15.2084 21.9167 15.7917 23.0156 16.8438 21.8177ZM17.724 22.2709C17.6563 22.724 19.1042 26.3073 19.0313 27.4063C18.9584 28.6511 19.7709 28.8073 21.0313 28.724C22.2865 28.6511 22.5573 27.7656 22.6719 26.7136C23.2031 21.8698 18.0052 20.4271 17.724 22.2709ZM15.1719 28.3021C15.9063 28.4271 16.0313 28.4636 16.7761 28.5209C18.1719 27.8386 16.75 23.6406 15.0625 23.3334C13.0469 22.9688 13.2344 23.3542 13.6094 24.6302C14.125 26.3646 13.9479 27.4219 15.1719 28.3021ZM39.6094 32.4531C36.5209 33.9844 32.9896 35 31.1563 35.099C33.25 34.1927 41.1459 30.625 43.8542 27.6979C43.8646 27.6771 43.8802 27.6563 43.8906 27.6354C42.8021 28.5365 41.5469 29.2448 39.4167 30.3021C36.1459 31.9375 27.3542 35.0417 23.8281 34.1354C24.25 34.0209 23.9948 34.0677 24.4271 34.0261C30.8334 33.2865 38.25 30.2813 43.3281 26.1719C44.0573 25.5834 44.5938 25.0938 45.0781 24.5729C41.8386 27.3334 37.7344 29.7865 34.8698 30.7865C28.8594 32.9271 23.5886 33.3802 20.3177 33.125C18.5365 32.9844 12.599 32.0052 8.0521 31.1042C9.64586 32.099 10.8229 33.4636 12.3177 34.5052C20.5261 40.2396 32.1771 38.6354 39.6094 32.4531ZM16.8594 33.7084C18.599 33.6302 19.9636 33.5052 21.599 34.1927C20.0677 34.8125 18.3386 34.125 16.8594 33.7084ZM26.3334 35.9479C27.9844 35.4531 28.6719 35.3906 30.3854 35.4011C28.8542 36.0209 27.974 36.1198 26.3334 35.9479ZM20.9479 35.8542C22.3542 36.1406 23.3906 36.0365 24.9323 36.2865C23.5573 36.5104 22.1094 36.8386 20.9479 35.8542ZM10.3698 17.349C8.44273 20.3177 7.08856 22.3281 4.76044 24.9531C3.87502 25.9479 4.13544 25.5938 3.9844 26.7396C3.54169 26.0834 3.59898 25.7344 3.96356 25.1042C4.36461 24.4063 5.0521 23.8073 5.69794 22.9115C7.1719 20.8646 8.95315 18.3594 10.3698 17.349ZM0.250021 6.78648C4.83856 4.00002 9.78648 1.27606 15.1511 0.416686C24.3854 -1.05206 35.1198 1.72919 40.2188 9.29169C40.7344 9.34898 41.2396 9.43231 41.724 9.55731C42.099 9.65106 42.6563 9.85939 43.2136 10.1459C45.0729 11.0886 45.4115 12.3229 45.9844 13.5625C49.2396 13.8125 50.8229 12.3438 53.3438 11.5313C51.5729 13.1198 49.4375 14.0052 46.5521 14.5729C46.7188 14.8177 46.9063 15.0521 47.1459 15.2865C49.1146 14.5365 50.4636 13.8021 52.849 13.4271C53.6719 13.2969 54.1979 13.3334 54.4688 12.9948C54.6302 12.7917 54.6302 12.5313 54.4011 12.1615C54.1406 11.7448 53.9531 11.75 53.6823 11.5104C53.9063 11.2656 54.6667 11.9375 54.8281 12.2344C55.3334 13.1927 55.375 14.9063 54.8177 15.1823C54.4115 15.375 52.9167 14.974 51.9688 15.1927C49.9584 15.6406 49.1771 16.2917 48.7344 16.8959C49.3229 17.6927 49.5156 18.5677 49.2188 19.5677C49.0573 20.1146 48.6615 20.7813 48.2188 21.3802C46.8073 25.2656 45.0834 29.8646 42.3959 32.25C40.3438 34.0573 37.6667 35.6146 34.7031 36.7604C27.5938 39.4948 18.4792 39.9323 12.0573 35.2709C8.87502 32.974 7.55731 32.0417 4.18752 30.2656C3.68752 30.1406 3.27085 30.0313 2.97398 29.9323C0.156271 28.9896 -1.3906 26.7552 1.75002 24.1667C5.40106 21.1406 6.44273 18.1719 9.15106 15.625C5.28648 13.6354 3.66669 9.96877 0.250021 6.78648ZM11.6615 32.5573C13.1563 32.6511 14.3281 32.6615 15.6667 33.3906C14.3073 33.7865 12.8906 33.0469 11.6615 32.5573ZM15.9167 35.1979C16.9948 35.5261 17.8125 35.5261 19.0052 35.8386C17.9063 35.9115 16.75 36.0573 15.9167 35.1979ZM13.6823 12.7084C12.4636 12.9531 11.4167 13.0573 10.8073 12.9271C12.4427 12.5886 16.0417 11.5052 18.4531 10.3802C18.5 10.2136 18.5313 10.0365 18.5104 9.87502C18.474 9.57294 17.8386 9.26044 17.1563 9.09898C16.3281 8.89585 15.3594 8.81773 14.4948 8.98439C12.1927 10.2917 9.56252 11.349 6.72398 11.3542C8.52085 10.9896 11.2031 9.84377 13.2396 8.7396C13.1979 8.43752 13.0104 7.98439 12.2969 7.75523C11.2604 7.4271 9.8594 7.76564 9.65106 7.81773C8.07294 8.4896 7.07815 9.08856 3.96877 9.00523L5.44273 8.64585C6.87502 8.23439 7.72398 7.85419 8.64065 7.47919C8.6771 7.4271 8.70835 7.3646 8.72919 7.30731C8.86981 6.97398 8.37502 6.85419 8.02606 6.80731C6.89065 6.71877 5.89585 6.67189 4.71356 6.53127C7.96877 6.14064 10.5313 6.45314 13.0365 6.99481C12.2969 6.28127 11.625 5.45835 10.6823 4.68231L9.38023 3.69794L10.9115 4.35939C12.474 5.25002 13.375 6.69273 14.9011 7.43231C16.2865 7.77606 17.7084 8.15627 19.2656 8.4896C18.125 7.15106 17.4063 5.35939 15.2136 3.69794L14.2136 2.95835C17.3542 4.20314 18.5729 6.13544 19.75 7.68752C19.75 7.68752 21.2188 8.68752 22.7917 8.78127C23.8229 8.84898 24.3959 8.58335 24.6667 8.40106C23.5469 6.52606 22.4427 4.97919 20.7761 3.20314L20.7813 3.20835C20.6823 3.13544 20.724 3.1771 20.6459 3.08856C21.7136 2.89064 24.7761 6.41148 26.3386 8.42189C26.6302 8.57294 27.1406 8.80731 27.7865 8.97919C28.3073 9.1146 28.7344 9.21356 29.099 9.24481C29.2761 9.2396 29.4479 9.2396 29.6198 9.2396C29.7761 9.21877 29.9219 9.1771 30.0573 9.10939C30.3125 8.97919 30.4427 8.70835 30.5104 8.45314C29.3959 6.80731 28.1354 5.30731 26.4584 4.22919C28.0417 4.28648 30.4323 6.72398 31.8542 8.46877C32.3386 8.73439 33.1094 9.06773 33.9167 9.13544C35.2761 9.25523 36.125 9.05731 36.3334 8.71877C36.4479 8.53648 36.5 8.25523 36.5261 8.03127C31.5104 2.3021 22.8281 0.562519 15.0625 1.62502C8.39065 2.53127 5.46356 5.47919 0.250021 6.78648C4.9896 9.02606 4.93752 11.9375 10.7448 14.3334C11.5677 13.7604 12.5261 13.2188 13.6823 12.7084ZM25.5469 21.1198C27.0834 20.8073 28.6146 24.3959 27.2969 26.3594C27.3229 24.5886 27.0834 22.2292 25.5469 21.1198Z" fill="#FDF3DD"/>
</g>
</svg>
