<svg width="48" height="45" viewBox="0 0 48 45" fill="none" xmlns="http://www.w3.org/2000/svg">
<path d="M40.3646 22.5312L23.8594 8.0677L7.34894 22.5365V43.2083C7.34894 43.7448 7.78644 44.1719 8.3229 44.1719H18.6458V35.1094C18.6458 34.5729 19.0781 34.1406 19.6146 34.1406H28.0937C28.6354 34.1406 29.0677 34.5729 29.0677 35.1094V44.1719H39.3906C39.9271 44.1719 40.3594 43.7448 40.3594 43.2083V22.526L40.3646 22.5312Z" fill="#FDF3DD"/>
<path d="M23.7656 0.151031L0.348938 20.6719L2.81248 23.4271L23.8594 4.98436L44.901 23.4271L47.3646 20.6719L23.9531 0.151031L23.8594 0.255198L23.7656 0.151031Z" fill="#FDF3DD"/>
<path d="M7.34894 3.10416H13.2864L13.2344 6.58332L7.34894 11.8489V3.10416Z" fill="#FDF3DD"/>
</svg>
