<svg width="39" height="52" viewBox="0 0 39 52" fill="none" xmlns="http://www.w3.org/2000/svg">
<mask id="mask0_1_182" style="mask-type:luminance" maskUnits="userSpaceOnUse" x="0" y="0" width="39" height="52">
<path d="M0.041687 0.182281H38.0573V51.2083H0.041687V0.182281Z" fill="white"/>
</mask>
<g mask="url(#mask0_1_182)">
<path d="M32.599 20.7552C33.2136 19.6302 33.5365 18.3437 33.5365 17.026C33.5365 13.0521 30.5677 9.7552 26.7396 9.24478C26.7969 8.83853 26.8229 8.46353 26.8229 8.06249C26.849 3.71353 23.3438 0.197906 19.0365 0.197906C14.7292 0.197906 11.224 3.71353 11.224 8.03645C11.224 8.43749 11.25 8.83853 11.3021 9.21874C7.47919 9.72916 4.50523 13.026 4.50523 17C4.50523 18.3177 4.82815 19.6042 5.44273 20.7292C2.31252 21.776 0.041687 24.7552 0.041687 28.2187C0.041687 32.4844 3.4896 36 7.77085 36.0573H17.9375V50.0677C17.9375 50.6823 18.4479 51.1927 19.0625 51.1927C19.6771 51.1927 20.1875 50.6823 20.1875 50.0677V36.0573H30.2448C34.5521 36.0573 38.0573 32.5417 38.0573 28.2187C38.0313 24.7552 35.7552 21.776 32.599 20.7552ZM30.1927 33.8281H20.1615V28.2708L26.3646 24.1146C26.875 23.7656 27.0104 23.0677 26.6875 22.5573C26.3386 22.0469 25.6459 21.9114 25.1354 22.2344L20.1615 25.5625V19.8437L24.1198 17.1875C24.625 16.8385 24.7604 16.1406 24.4375 15.6302C24.0938 15.1198 23.3959 14.9896 22.8906 15.3073L20.1615 17.1354V14.7448C20.1615 14.1302 19.6511 13.6198 19.0365 13.6198C18.4219 13.6198 17.9115 14.1302 17.9115 14.7448V20.0052L15.1563 18.2864C14.6198 17.9687 13.9531 18.125 13.6042 18.6354C13.2813 19.1719 13.4427 19.8437 13.9531 20.1927L17.8854 22.6614V28.3542L12.9636 25.0521C12.4531 24.7031 11.7604 24.8385 11.4115 25.375C11.0625 25.8854 11.1979 26.5833 11.7292 26.9323L17.9115 31.0625V33.8281H7.7969C4.75002 33.8021 2.28648 31.276 2.28648 28.2187C2.28648 25.2917 4.56252 22.8489 7.45315 22.6354C7.88023 22.6094 8.25523 22.3385 8.41148 21.9375C8.57294 21.5364 8.49481 21.0781 8.19794 20.7864C7.26565 19.7656 6.75523 18.4219 6.75523 17.026C6.75523 13.9427 9.27085 11.4167 12.349 11.4167H12.6667C13.0677 11.4427 13.3906 11.2812 13.6302 10.9635C13.8438 10.6667 13.9271 10.2656 13.7917 9.91666C13.5781 9.32291 13.4688 8.68228 13.4688 8.03645C13.4688 4.94791 15.9844 2.42707 19.0625 2.42707C22.1406 2.42707 24.6563 4.94791 24.6563 8.03645C24.6563 8.68228 24.5469 9.32291 24.3334 9.91666C24.1979 10.2656 24.2813 10.6667 24.4948 10.9635C24.7084 11.2552 25.0834 11.4167 25.4584 11.4167H25.7761C28.8542 11.4167 31.3698 13.9427 31.3698 17.026C31.3698 18.4219 30.8594 19.7396 29.9271 20.7864C29.6302 21.1042 29.5521 21.5625 29.7084 21.9375C29.8698 22.3385 30.2448 22.6094 30.6719 22.6354C33.5625 22.8489 35.8386 25.3177 35.8386 28.2187C35.7865 31.3073 33.2969 33.8281 30.1927 33.8281Z" fill="#FDF3DD"/>
</g>
</svg>
