<svg width="41" height="42" viewBox="0 0 41 42" fill="none" xmlns="http://www.w3.org/2000/svg">
<mask id="mask0_1_72" style="mask-type:luminance" maskUnits="userSpaceOnUse" x="0" y="0" width="41" height="42">
<path d="M0.630188 0.0677185H40.651V41.0886H0.630188V0.0677185Z" fill="white"/>
</mask>
<g mask="url(#mask0_1_72)">
<path fill-rule="evenodd" clip-rule="evenodd" d="M20.3021 0.755219V40.4063C20.3021 40.7865 19.9948 41.0886 19.6146 41.0886C19.2396 41.0886 18.9323 40.7865 18.9323 40.4063V0.755219C18.9323 0.37501 19.2396 0.0677185 19.6146 0.0677185C19.9948 0.0677185 20.3021 0.37501 20.3021 0.755219ZM7.51561 7.14584C8.2604 7.14584 8.94269 6.83334 9.43227 6.32293C9.93227 5.8073 10.2396 5.08855 10.2396 4.29168C10.2396 3.4948 9.93227 2.77605 9.43227 2.26043C8.94269 1.75001 8.2604 1.43751 7.51561 1.43751C6.76561 1.43751 6.08852 1.75001 5.59894 2.26043C5.09894 2.77605 4.79165 3.4948 4.79165 4.29168C4.79165 5.08855 5.09894 5.8073 5.59894 6.32293C6.08852 6.83334 6.76561 7.14584 7.51561 7.14584ZM11.3854 10.5886H3.64582C2.81769 10.5886 2.06769 10.9219 1.52602 11.4531C0.984357 11.9844 0.651024 12.7188 0.651024 13.5261V23.2708C0.651024 23.625 0.79165 23.9531 1.0104 24.1823C1.22915 24.4063 1.52602 24.5469 1.85415 24.5469C2.17706 24.5469 2.47394 24.4063 2.69269 24.1823C2.91665 23.9479 3.05207 23.625 3.05207 23.2708V14.8386C3.05207 14.4636 3.35936 14.1563 3.73957 14.1563C4.11977 14.1563 4.42707 14.4636 4.42707 14.8386V38.4479C4.42707 38.8073 4.56769 39.1302 4.78644 39.3594C5.00519 39.5833 5.30207 39.724 5.63019 39.724C5.95311 39.724 6.24998 39.5833 6.46873 39.3594C6.69269 39.1302 6.82811 38.8073 6.82811 38.4479V25.3438C6.82811 24.9636 7.1354 24.6615 7.51561 24.6615C7.89582 24.6615 8.20311 24.9636 8.20311 25.3438V38.4479C8.20311 38.8073 8.34373 39.1302 8.56248 39.3594C8.78123 39.5833 9.07811 39.724 9.40623 39.724C9.72915 39.724 10.026 39.5833 10.2448 39.3594C10.4687 39.1302 10.6041 38.8073 10.6041 38.4479V14.8386C10.6041 14.4636 10.9114 14.1563 11.2916 14.1563C11.6719 14.1563 11.9791 14.4636 11.9791 14.8386V23.2708C11.9791 23.625 12.1198 23.9531 12.3385 24.1823C12.5573 24.4063 12.8541 24.5469 13.1823 24.5469C13.5052 24.5469 13.8021 24.4063 14.0208 24.1823C14.2448 23.9479 14.3854 23.625 14.3854 23.2708V13.5261C14.3854 12.7188 14.0469 11.9896 13.5104 11.4583C12.9635 10.9219 12.2083 10.5886 11.3854 10.5886ZM31.8698 7.14584C32.6146 7.14584 33.2969 6.83334 33.7864 6.32293C34.2812 5.8073 34.5937 5.08855 34.5937 4.29168C34.5937 3.4948 34.2812 2.77605 33.7864 2.26043C33.2969 1.75001 32.6146 1.43751 31.8698 1.43751C31.1198 1.43751 30.4427 1.75001 29.9531 2.26043C29.4531 2.77605 29.1458 3.4948 29.1458 4.29168C29.1458 5.08855 29.4531 5.8073 29.9531 6.32293C30.4427 6.83334 31.1198 7.14584 31.8698 7.14584ZM40.526 21.7708L37.875 12.4896C37.6927 11.9583 37.3698 11.5 36.9635 11.1615C36.5208 10.8021 35.9739 10.5886 35.3854 10.5886H28.3541C27.7604 10.5886 27.2135 10.8021 26.776 11.1615C26.3698 11.5 26.0469 11.9583 25.8646 12.4896C25.8594 12.4948 25.8594 12.5 25.8594 12.5052L23.2083 21.7656C23.1094 22.1198 23.1406 22.4896 23.2812 22.8021C23.4062 23.0886 23.6198 23.3125 23.8854 23.4115L23.9583 23.4323C24.1771 23.4948 24.4062 23.4583 24.6041 23.349C24.8229 23.224 25.0104 23.0052 25.1146 22.724C25.125 22.6979 25.1302 22.6771 25.1406 22.6511L27.4427 14.599C27.5729 14.1458 28.125 13.9323 28.5469 14.2604C28.7604 14.4271 28.8385 14.7136 28.7604 14.9688V14.974C28.0208 17.5573 27.3229 20.4583 26.4687 22.9896L25.5625 26.1615C25.401 26.724 25.8229 27.2813 26.4114 27.2813H37.3229C37.9114 27.2813 38.3333 26.724 38.1771 26.1615L37.2708 22.9896C36.4114 20.4583 35.7135 17.5573 34.9739 14.9688C34.875 14.6094 35.0833 14.2292 35.4479 14.125C35.8125 14.0261 36.1927 14.2344 36.2969 14.5938L38.5989 22.6563C38.6094 22.6771 38.6146 22.7031 38.6198 22.724C38.7291 23.0052 38.9114 23.224 39.1302 23.349C39.3281 23.4583 39.5573 23.4948 39.7812 23.4323L39.8489 23.4115C40.1146 23.3125 40.3281 23.0886 40.4583 22.7969C40.5937 22.4948 40.6302 22.1198 40.526 21.7708ZM34.9583 29.4688C34.9583 29.0156 34.5885 28.6511 34.1354 28.6511H33.3802C32.9219 28.6511 32.5521 29.0156 32.5521 29.4688V38.4479C32.5521 38.8073 32.6927 39.1302 32.9166 39.3594C33.1302 39.5833 33.4323 39.724 33.7552 39.724C34.0833 39.724 34.3802 39.5833 34.5989 39.3594C34.8177 39.1302 34.9583 38.8073 34.9583 38.4479L34.9531 31.6979L34.9583 29.4688ZM31.1823 29.6042C31.1823 29.0781 30.75 28.6511 30.2239 28.6511H29.7396C29.2083 28.6511 28.7812 29.0781 28.7812 29.6042V38.4479C28.7812 38.8073 28.9166 39.1302 29.1406 39.3594C29.3594 39.5833 29.6562 39.724 29.9791 39.724C30.3073 39.724 30.6041 39.5833 30.8229 39.3594C31.0416 39.125 31.1823 38.8073 31.1823 38.4479V29.6042Z" fill="#FDF3DD"/>
</g>
</svg>
