<svg width="48" height="45" viewBox="0 0 48 45" fill="none" xmlns="http://www.w3.org/2000/svg">
<path d="M47.9532 12.5885V14.9115L44.2761 11.224L43.7969 10.7448L40.4063 7.33854L35.4636 2.38021C35.3594 2.27604 35.2136 2.21354 35.0625 2.21354C34.9115 2.21354 34.7709 2.27604 34.6615 2.38021L29.724 7.33854L25.8542 11.224L22.1771 14.9115V12.5885L34.4844 0.234375C34.6355 0.0833323 34.8386 0 35.0625 0C35.2865 0 35.4948 0.0833323 35.6407 0.234375L47.9532 12.5885Z" fill="#FDF3DD"/>
<path d="M38.6354 7.17186H31.4948L35.0625 3.58853L38.6354 7.17186ZM42.0261 10.5781H28.1042L30.3594 8.31249H39.7656L42.0261 10.5781ZM43.3073 11.8594V13.9792H26.8229V11.8594L26.9688 11.7135H43.1615L43.3073 11.8594ZM43.3073 15.1198V17.3854H39.3386C39.1302 16.5 38.6563 15.7135 38.0052 15.1198H43.3073ZM39.4479 18.526H43.3073V20.7917H39.4479V18.526ZM43.3073 21.9323V23.6354C42.0469 23.4375 40.7604 23.2969 39.4479 23.2083V21.9323H43.3073ZM38.2917 18.0156C38.1094 16.3906 36.7344 15.1198 35.0625 15.1198C33.3854 15.1198 32 16.4062 31.8334 18.0469C31.8177 18.1614 31.8125 18.2708 31.8125 18.3854V23.2969C34.0209 23.1094 36.1979 23.0625 38.3125 23.151V18.3854C38.3125 18.2552 38.3073 18.1354 38.2917 18.0156ZM37.1042 20.125C37.1042 20.4375 36.849 20.6927 36.5365 20.6927C36.224 20.6927 35.9688 20.4375 35.9688 20.125V19.0625C35.9688 18.75 36.224 18.4948 36.5365 18.4948C36.849 18.4948 37.1042 18.75 37.1042 19.0625V20.125Z" fill="#FDF3DD"/>
<path d="M47.9531 25.8229V31.099C40.1979 28.9063 30.849 29.0729 21.5208 31.5781C13.1146 33.8386 5.53125 37.8281 0 42.8698V37.9688C2.60938 35.4479 5.74479 33.1771 9.25 31.2396C11.9375 29.7604 14.8385 28.474 17.8906 27.4167C19.1719 26.974 20.4844 26.5729 21.8125 26.2136C23.3229 25.8073 24.8281 25.4688 26.3333 25.1875C26.349 25.1875 26.3698 25.1823 26.3854 25.1771H26.3958C28.0156 24.875 29.6302 24.6458 31.2292 24.4896C31.2344 24.4948 31.2396 24.4948 31.2448 24.4948C31.2917 24.4948 31.3333 24.4896 31.375 24.4792C33.8906 24.2396 36.3594 24.1823 38.75 24.3125C38.7917 24.3177 38.8333 24.3229 38.8802 24.3229C38.901 24.3229 38.9271 24.3229 38.9479 24.3177C40.5729 24.4115 42.1615 24.5886 43.6979 24.849C43.7031 24.849 43.7031 24.849 43.7031 24.8542C43.7448 24.8646 43.7917 24.875 43.8385 24.875C45.2552 25.1198 46.6302 25.4375 47.9531 25.8229Z" fill="#FDF3DD"/>
<path d="M47.9532 32.2864V38.0156C40.198 35.8229 30.849 35.9896 21.5209 38.4948C16.6563 39.8021 12.1042 41.6614 7.98442 44.026H0.427124C5.849 38.9531 13.4063 34.9427 21.8125 32.6823C31.0678 30.1927 40.3334 30.0573 47.9532 32.2864Z" fill="#FDF3DD"/>
<path d="M47.9531 39.2031V44.026H10.3594C13.9062 42.1719 17.75 40.6875 21.8125 39.5937C31.0677 37.1042 40.3333 36.9687 47.9531 39.2031Z" fill="#FDF3DD"/>
<path d="M19.6875 8.88019C19.6875 9.1979 19.4375 9.45311 19.1198 9.45311H17.8646C17.8802 9.26561 17.8907 9.0729 17.8907 8.88019C17.8907 8.68748 17.8802 8.49998 17.8646 8.31248H19.1198C19.4375 8.31248 19.6875 8.56769 19.6875 8.88019ZM18.3907 5.57811L17.3021 6.20832C17.1459 5.85936 16.9532 5.53123 16.7344 5.22394L17.823 4.59373C18.099 4.43227 18.4427 4.52602 18.599 4.80206C18.7552 5.0729 18.6615 5.42186 18.3907 5.57811ZM18.599 12.9635C18.4948 13.1458 18.3021 13.25 18.1094 13.25C18.0105 13.25 17.9115 13.2239 17.823 13.1719L16.7344 12.5416C16.9532 12.2291 17.1459 11.901 17.3021 11.5573L18.3907 12.1823C18.6615 12.3385 18.7552 12.6875 18.599 12.9635ZM20.9584 21.25L18.2396 22.8854V26.0989C17.8594 26.2239 17.4792 26.3541 17.1042 26.4844V22.8854L14.3802 21.2448C14.1146 21.0833 14.0261 20.7344 14.1875 20.4635C14.349 20.1927 14.698 20.1041 14.9688 20.2708L17.1042 21.5521V19.8541C17.1042 19.5416 17.3594 19.2864 17.6719 19.2864C17.9844 19.2864 18.2396 19.5416 18.2396 19.8541V21.5521L20.375 20.2708C20.6459 20.1041 20.9948 20.1927 21.1563 20.4635C21.3125 20.7344 21.2292 21.0885 20.9584 21.25ZM15.8334 2.59373L15.2032 3.68227C14.8959 3.46352 14.5677 3.27081 14.2188 3.10936L14.849 2.02082C15.0052 1.74998 15.349 1.65623 15.625 1.81248C15.8959 1.96873 15.9896 2.31769 15.8334 2.59373ZM15.625 15.9479C15.5313 16 15.4375 16.026 15.3386 16.026C15.1407 16.026 14.9532 15.9219 14.849 15.7396L14.2188 14.651C14.5677 14.4896 14.8959 14.2969 15.2032 14.0781L15.8334 15.1666C15.9896 15.4427 15.8959 15.7916 15.625 15.9479ZM12.125 15.2135V16.4739C12.125 16.7864 11.8698 17.0416 11.5573 17.0416C11.2448 17.0416 10.9896 16.7864 10.9896 16.4739V15.2135C11.1771 15.2291 11.3646 15.2396 11.5573 15.2396C11.75 15.2396 11.9375 15.2291 12.125 15.2135Z" fill="#FDF3DD"/>
<path d="M12.125 1.28646V2.54688C11.9375 2.53125 11.75 2.52083 11.5573 2.52083C11.3646 2.52083 11.1771 2.53125 10.9896 2.54688V1.28646C10.9896 0.973958 11.2448 0.71875 11.5573 0.71875C11.8698 0.71875 12.125 0.973958 12.125 1.28646Z" fill="#FDF3DD"/>
<path d="M8.89583 3.11457C8.54687 3.27602 8.21875 3.46352 7.91146 3.68227L7.28125 2.59373C7.125 2.31769 7.21875 1.97394 7.48958 1.81248C7.76042 1.65623 8.10938 1.74998 8.26563 2.02082L8.89583 3.11457ZM8.89583 14.651L8.26563 15.7396C8.16146 15.9219 7.96875 16.026 7.77083 16.026C7.67708 16.026 7.57812 16 7.48958 15.9479C7.21875 15.7916 7.125 15.4427 7.28125 15.1719L7.91146 14.0781C8.21875 14.2969 8.54687 14.4896 8.89583 14.651ZM12.2708 24.8541L9.54688 26.4948V29.7864C9.16667 29.9896 8.78646 30.1927 8.41146 30.4062V26.4948L5.69271 24.8541C5.42187 24.6927 5.33333 24.3437 5.5 24.0729C5.66146 23.8021 6.01042 23.7135 6.27604 23.875L8.41146 25.1614V23.4635C8.41146 23.151 8.66667 22.8958 8.97917 22.8958C9.29167 22.8958 9.54688 23.151 9.54688 23.4635V25.1614L11.6823 23.875C11.9531 23.7135 12.3021 23.8021 12.4635 24.0729C12.625 24.3437 12.5365 24.6927 12.2708 24.8541ZM6.375 5.22394C6.15625 5.53123 5.96875 5.86457 5.80729 6.20832L4.71875 5.57811C4.44792 5.42186 4.35417 5.0729 4.51042 4.80206C4.67187 4.52602 5.01563 4.43227 5.28646 4.59373L6.375 5.22394ZM6.375 12.5416L5.28646 13.1719C5.19792 13.2239 5.09896 13.2448 5.00521 13.2448C4.80729 13.2448 4.61979 13.1458 4.51042 12.9635C4.35417 12.6875 4.44792 12.3385 4.71875 12.1823L5.80729 11.5521C5.96875 11.901 6.16146 12.2291 6.375 12.5416ZM5.21875 8.88019C5.21875 9.0729 5.22917 9.26561 5.24479 9.45311H3.98958C3.67708 9.45311 3.42188 9.1979 3.42188 8.88019C3.42188 8.56769 3.67708 8.31248 3.98958 8.31248H5.24479C5.22917 8.49998 5.21875 8.68748 5.21875 8.88019Z" fill="#FDF3DD"/>
<circle cx="11.6198" cy="9.07812" r="5" fill="#FDF3DD"/>
</svg>
