<svg width="28" height="45" viewBox="0 0 28 45" fill="none" xmlns="http://www.w3.org/2000/svg">
<mask id="mask0_1_821" style="mask-type:luminance" maskUnits="userSpaceOnUse" x="0" y="0" width="28" height="45">
<path d="M0 0.572906H27.4844V44.5937H0V0.572906Z" fill="white"/>
</mask>
<g mask="url(#mask0_1_821)">
<path d="M13.4739 0.572906C12.5937 0.572906 11.7239 0.661449 10.8594 0.838532C9.99998 1.01562 9.16144 1.27082 8.34894 1.61457C7.53644 1.95832 6.7656 2.37499 6.03123 2.86978C5.30206 3.36978 4.62498 3.93228 4.00519 4.56249C3.38019 5.1927 2.82811 5.8802 2.33852 6.61978C1.84894 7.36457 1.43227 8.14582 1.09894 8.96874C0.760395 9.79166 0.505188 10.6406 0.333313 11.5156C0.15623 12.3906 0.0728973 13.276 0.067688 14.1667C0.067688 18.6979 4.58852 26.2864 8.21352 31.6458H4.81769L1.62498 44.5937H25.3229L22.1302 31.6458H18.7344C22.3594 26.2864 26.8802 18.6979 26.8802 14.1667C26.8802 13.276 26.7916 12.3906 26.6198 11.5156C26.4479 10.6406 26.1927 9.79166 25.8541 8.96874C25.5156 8.14582 25.1041 7.36457 24.6146 6.61978C24.125 5.8802 23.5677 5.1927 22.9479 4.56249C22.3229 3.93228 21.651 3.36978 20.9166 2.86978C20.1875 2.37499 19.4166 1.95832 18.6041 1.61457C17.7916 1.27082 16.9531 1.01562 16.0885 0.838532C15.2239 0.661449 14.3541 0.572906 13.4739 0.572906ZM20.1406 34.2344L22.0573 42.0052H4.89581L6.81248 34.2344H9.97915C11.2031 35.9687 12.1458 37.2135 12.5312 37.6302L13.5521 38.9479L14.5729 37.6302C14.8802 37.2135 15.8229 35.9687 17.125 34.2344H20.1406ZM13.4739 34.6771C9.72394 29.5469 2.62498 18.9062 2.62498 14.1667C2.62498 13.4427 2.69269 12.7292 2.83331 12.0208C2.96873 11.3125 3.17706 10.625 3.4479 9.95832C3.72394 9.28645 4.05727 8.65624 4.4531 8.05207C4.84894 7.45312 5.29686 6.89582 5.80206 6.38541C6.30727 5.87499 6.85415 5.41666 7.4479 5.01561C8.03644 4.61457 8.66144 4.27603 9.3229 3.99999C9.97915 3.72395 10.6614 3.51562 11.3594 3.37499C12.0573 3.23436 12.7604 3.16145 13.4739 3.16145C14.1875 3.16145 14.8958 3.23436 15.5937 3.37499C16.2916 3.51562 16.9687 3.72395 17.6302 3.99999C18.2864 4.27603 18.9114 4.61457 19.5052 5.01561C20.0989 5.41666 20.6458 5.87499 21.151 6.38541C21.651 6.89582 22.1041 7.45312 22.5 8.05207C22.8958 8.65624 23.2291 9.28645 23.5 9.95832C23.776 10.625 23.9791 11.3125 24.1198 12.0208C24.2604 12.7292 24.3281 13.4427 24.3281 14.1667C24.3281 18.9062 17.2291 29.5469 13.4739 34.6771Z" fill="#FDF3DD"/>
</g>
<circle cx="13.5" cy="13.5" r="3.5" stroke="#FDF3DD" stroke-width="2"/>
</svg>
