<svg width="39" height="39" viewBox="0 0 39 39" fill="none" xmlns="http://www.w3.org/2000/svg">
<mask id="mask0_1_67" style="mask-type:luminance" maskUnits="userSpaceOnUse" x="0" y="0" width="39" height="39">
<path d="M0.973938 0.640625H38.9948V38.6563H0.973938V0.640625Z" fill="white"/>
</mask>
<g mask="url(#mask0_1_67)">
<path d="M38.375 38.6563H1.59373C1.2604 38.6563 0.989563 38.3854 0.989563 38.0521V34.6146C0.989563 28.901 5.64061 24.25 11.3594 24.25H28.6146C34.3281 24.25 38.9791 28.901 38.9791 34.6146V38.0521C38.9791 38.3854 38.7083 38.6563 38.375 38.6563ZM19.9844 22.625C13.9219 22.625 8.98956 17.6927 8.98956 11.6354C8.98956 5.57292 13.9219 0.640625 19.9844 0.640625C26.0469 0.640625 30.9791 5.57292 30.9791 11.6354C30.9791 17.6927 26.0469 22.625 19.9844 22.625Z" fill="#FDF3DD"/>
</g>
</svg>
