<svg width="40" height="40" viewBox="0 0 40 40" fill="none" xmlns="http://www.w3.org/2000/svg">
<mask id="mask0_1_77" style="mask-type:luminance" maskUnits="userSpaceOnUse" x="0" y="0" width="40" height="40">
<path d="M0.630188 0.182281H39.651V39.2031H0.630188V0.182281Z" fill="white"/>
</mask>
<g mask="url(#mask0_1_77)">
<path d="M30.5885 21.3906H30.5469C30.1979 21.3906 29.9062 21.1198 29.8854 20.7656C29.7239 18.0625 28.6146 15.4948 26.7552 13.5364C24.8958 11.5729 22.3906 10.3281 19.7031 10.0208C19.3333 9.97915 19.0729 9.65102 19.1146 9.28644C19.1562 8.92185 19.4844 8.65623 19.8489 8.6979C22.8489 9.04165 25.6458 10.4323 27.7187 12.6198C29.7916 14.8073 31.0364 17.6719 31.2135 20.6875C31.2344 21.0573 30.9531 21.3698 30.5885 21.3906ZM19.5208 13.5C19.5625 13.1354 19.8906 12.875 20.2604 12.9166C22.0469 13.1198 23.7083 13.9479 24.9427 15.25C26.1823 16.5521 26.9219 18.2604 27.026 20.0573C27.0469 20.4219 26.7656 20.7344 26.401 20.7604H26.3594C26.0104 20.7604 25.7187 20.4896 25.6979 20.1354C25.6094 18.651 25 17.2396 23.9791 16.1666C22.9583 15.0885 21.5833 14.4062 20.1094 14.2344C19.7448 14.1979 19.4844 13.8646 19.5208 13.5ZM29.5156 29.9687C29.5 29.9896 28.7239 30.7187 28.7031 30.7396C27.276 32.1146 25.026 32.3906 23.1614 31.9531C22.4791 31.7916 21.8177 31.5625 21.1771 31.2864C18.2864 30.026 15.5364 27.8021 13.3333 25.4635C11.1146 23.1354 9.04165 20.276 7.94269 17.3229C7.6979 16.6666 7.50519 15.9896 7.38019 15.3021C7.04685 13.4166 7.43748 11.1875 8.8854 9.83331C8.91144 9.81248 9.67706 9.08331 9.7031 9.06248C11.1354 7.80206 12.3646 9.40102 13.5104 10.6302C14.4896 11.6823 16.1302 13.4114 15.8594 14.9896C15.7083 15.8646 14.776 16.5052 14.4531 17.3646C14.0416 18.4635 14.2344 19.5573 14.9271 20.4948C15.3906 21.1198 15.9531 21.7916 16.5573 22.4114C17.1458 23.0469 17.7812 23.6458 18.3854 24.1406C19.2812 24.8802 20.3646 25.1354 21.4791 24.7812C22.3594 24.5052 23.0469 23.6094 23.9323 23.5052C25.5208 23.3177 27.1614 25.0521 28.1562 26.0833C29.3229 27.2916 30.8541 28.6041 29.5156 29.9687ZM20.1406 0.177063C9.36456 0.177063 0.630188 8.91144 0.630188 19.6875C0.630188 30.4583 9.36456 39.1927 20.1406 39.1927C30.9114 39.1927 39.6458 30.4583 39.6458 19.6875C39.6458 8.91144 30.9114 0.177063 20.1406 0.177063Z" fill="#FDF3DD"/>
</g>
</svg>
