<svg width="41" height="50" viewBox="0 0 41 50" fill="none" xmlns="http://www.w3.org/2000/svg">
<mask id="mask0_1_192" style="mask-type:luminance" maskUnits="userSpaceOnUse" x="0" y="0" width="41" height="50">
<path d="M0.828125 0.03125H40.849V49.0573H0.828125V0.03125Z" fill="white"/>
</mask>
<g mask="url(#mask0_1_192)">
<path d="M14.6094 49.0573C7.01565 49.0573 0.838562 42.8802 0.838562 35.2864C0.838562 32.1927 3.03127 26.7187 7.3594 19.0208C10.5365 13.3646 13.7552 8.5104 13.7865 8.46352C13.974 8.18748 14.2761 8.02081 14.599 8.02081C14.9219 8.02081 15.2396 8.18748 15.4167 8.46352C15.4427 8.5104 18.6719 13.3646 21.849 19.0208C26.1771 26.7187 28.375 32.1927 28.375 35.2864C28.375 42.8802 22.2031 49.0573 14.6094 49.0573ZM14.6094 10.8073C13.4636 12.5989 11.2552 16.0989 9.06773 19.9948C3.88544 29.2083 2.80731 33.3958 2.80731 35.2864C2.79689 41.7969 8.09377 47.0937 14.6094 47.0937C21.125 47.0937 26.4219 41.7969 26.4219 35.2864C26.4219 33.3958 25.3334 29.1979 20.1615 19.9948C17.9636 16.0989 15.7552 12.5885 14.6094 10.8073ZM16.1615 42.2291C18.8073 40.7604 20.9271 38.4271 22.125 35.6614C22.3386 35.1614 22.1146 34.5833 21.6146 34.3698C21.1146 34.151 20.5365 34.375 20.3177 34.875C19.2917 37.25 17.474 39.2604 15.1979 40.5156C14.7292 40.7812 14.5521 41.3802 14.8177 41.8489C14.9948 42.1719 15.3281 42.3489 15.6771 42.3489C15.8438 42.3489 16.0052 42.3073 16.1615 42.2291ZM32.7188 23.7969C28.2448 23.7969 24.599 20.1614 24.599 15.6771C24.599 11.5625 31.1511 1.58852 31.8959 0.463521C32.0834 0.18748 32.3854 0.020813 32.7084 0.020813C33.0313 0.020813 33.349 0.18748 33.5261 0.463521C34.2709 1.58852 40.8229 11.5625 40.8229 15.6771C40.8438 20.1614 37.2031 23.7969 32.7188 23.7969ZM32.7188 2.81769C30.4636 6.36456 26.5573 13.0521 26.5573 15.6875C26.5573 19.0833 29.3229 21.8489 32.7188 21.8489C36.1146 21.8489 38.8802 19.0833 38.8802 15.6875C38.8802 13.0521 34.974 6.36456 32.7188 2.81769ZM33.2084 18.9635C34.4531 18.276 35.5052 17.2604 36.2396 16.0416C36.5156 15.5833 36.3698 14.9739 35.9063 14.6979C35.4479 14.4219 34.8386 14.5729 34.5625 15.0312C34.0052 15.9635 33.2084 16.7291 32.2656 17.25C31.7969 17.5104 31.6198 18.1094 31.8854 18.5833C32.0625 18.9062 32.3959 19.0833 32.75 19.0833C32.8959 19.0833 33.0521 19.0416 33.2084 18.9635Z" fill="#FDF3DD"/>
</g>
</svg>
