<svg width="50" height="50" viewBox="0 0 50 50" fill="none" xmlns="http://www.w3.org/2000/svg">
<mask id="mask0_1_197" style="mask-type:luminance" maskUnits="userSpaceOnUse" x="0" y="0" width="50" height="50">
<path d="M0.083313 0.666687H49.1041V49.6927H0.083313V0.666687Z" fill="white"/>
</mask>
<g mask="url(#mask0_1_197)">
<path d="M48.9896 27.5834C48.6458 25.4063 47.1354 23.0521 44.7291 20.974C41.4687 18.1719 36.6979 17.724 32.5052 19.8698C31.0989 19.0365 29.0052 18.1719 26.6354 18.1719C24.0937 18.1719 22.3437 19.1771 21.3125 20.0052C20.1458 20.6615 18.6041 21.9427 17.6406 24.3334C16.75 26.5781 16.8177 28.8646 17.0573 30.4896C13.5573 33.6354 12.1823 38.2396 13.5885 42.3542C14.6198 45.3646 16.2343 47.6511 18.1562 48.7917C18.6718 49.0677 19.2187 49.3125 19.7343 49.4479C20.3177 49.6198 20.8698 49.6927 21.3854 49.6927C24.0625 49.6927 25.8489 47.5104 27.8021 45.0209C29.4166 43.0156 31.2396 40.7292 34.0208 38.8594C36.7656 36.9584 39.5468 36.0938 41.9843 35.3334C45.5573 34.1927 48.6771 33.224 49.0208 29.3802C49.0937 28.7917 49.0937 28.2084 48.9896 27.5834ZM47.651 29.2084C47.375 32.0104 45.3854 32.7709 41.5729 33.9844C39.1666 34.7448 36.1458 35.6771 33.2291 37.6875C30.3125 39.6927 28.3177 42.1511 26.7396 44.1198C24.2343 47.2709 22.7916 48.8594 20.1146 48.0625C19.6666 47.9271 19.2187 47.7552 18.8073 47.5469C17.1927 46.5781 15.7864 44.5729 14.8958 41.8698C13.6562 38.2031 14.9635 34.0209 18.2239 31.25L18.5312 31.0104L18.4635 30.6302C18.2239 29.1771 18.0885 26.9584 18.9114 24.849C19.7031 22.8073 21.0416 21.7344 22 21.2188L22.1041 21.1459C22.9635 20.4219 24.4375 19.5938 26.6041 19.5938C28.8698 19.5938 30.8593 20.5261 32.0937 21.2865L32.4375 21.4948L32.7812 21.3229C36.5573 19.2813 40.8854 19.5573 43.8021 22.0834C45.9687 23.9167 47.3073 25.9896 47.5781 27.8229C47.6823 28.2761 47.7187 28.7604 47.651 29.2084ZM7.16664 14.3334C6.31247 16.0625 7.20309 18.724 9.46872 20.7344C10.9791 22.0469 12.6979 22.7396 14.1406 22.7396C15.1354 22.7396 15.9948 22.3959 16.6093 21.7344C17.3333 20.9063 17.5052 19.6615 17.0937 18.3125C16.7135 17.0677 15.8541 15.7865 14.6875 14.7813C13.5208 13.7448 12.1823 13.0521 10.875 12.8438C9.77601 12.6354 8.78122 12.8125 8.06247 13.3281L5.38539 10.9792C5.10934 10.7344 4.66143 10.7709 4.42184 11.0469C4.18226 11.3229 4.21351 11.7709 4.48955 12.0156L7.16664 14.3334ZM10.0208 14.125C10.2604 14.125 10.4635 14.1615 10.6718 14.1927C11.7031 14.3698 12.8333 14.9531 13.7968 15.8229C14.7552 16.6875 15.4791 17.724 15.7864 18.724C15.9583 19.2448 16.1302 20.2136 15.5833 20.8386C14.6562 21.875 12.2864 21.3542 10.3958 19.6927C8.51038 18.0365 7.68226 15.7188 8.60934 14.6771C8.95309 14.2292 9.50518 14.125 10.0208 14.125ZM9.94789 24.9531C7.68226 23.5365 5.21351 23.4323 3.90622 24.6094L1.26559 22.9844C0.953093 22.7761 0.510385 22.8802 0.302052 23.1875C0.0937182 23.5 0.197886 23.9531 0.510385 24.1563L3.15101 25.7865C2.94789 26.5469 3.04684 27.4115 3.49476 28.3073C4.01038 29.349 4.97393 30.349 6.14059 31.0781C7.30726 31.8021 8.60934 32.2188 9.77601 32.2188H9.81247C11.0833 32.2188 12.0781 31.7344 12.6302 30.8698C13.6927 29.1771 12.526 26.5781 9.94789 24.9531ZM11.4948 30.1459C11.1198 30.7292 10.2916 30.8334 9.84893 30.8334C8.92184 30.8334 7.89059 30.4896 6.92705 29.9011C5.96872 29.3125 5.21351 28.5156 4.80205 27.6875C4.59372 27.2709 4.28643 26.474 4.66143 25.8906C4.93747 25.4375 5.55726 25.1979 6.27601 25.1979C7.16664 25.1979 8.23434 25.5052 9.22914 26.1302C11.0468 27.2709 12.1146 29.1406 11.4948 30.1459ZM18.9479 11.8438C19.9062 14.5729 21.8958 16.375 23.75 16.375C24.0625 16.375 24.3698 16.3073 24.6771 16.2031C26.776 15.4375 27.4948 12.3594 26.3593 9.14065C25.3333 6.27085 23.2396 4.43752 21.3125 4.6094L20.1146 1.21877C19.9739 0.875022 19.5989 0.666687 19.2187 0.807313C18.875 0.942729 18.6718 1.32294 18.8073 1.70315L20.0104 5.09377C18.3958 6.20315 17.9166 8.96877 18.9479 11.8438ZM21.0729 6.09898C21.2135 6.03127 21.3854 6.03127 21.5573 6.03127C22.7916 6.03127 24.3021 7.5521 25.0573 9.66148C25.9166 12.0469 25.5052 14.4688 24.1979 14.9219C22.8958 15.4063 21.0729 13.7813 20.2135 11.3906C19.3906 9.00523 19.7708 6.58335 21.0729 6.09898ZM34.1198 15.9219C34.2604 15.9219 34.4323 15.9219 34.5677 15.8906C36.526 15.5417 37.6562 12.9167 37.1406 9.90627C36.6614 7.2396 35.0833 5.33856 33.3646 5.16669L32.7812 2.0521C32.7135 1.6719 32.3698 1.4271 31.9948 1.49481C31.6146 1.56773 31.375 1.91148 31.4427 2.29169L31.9948 5.36981C30.4479 6.13544 29.625 8.4844 30.1041 11.1511C30.5833 13.9531 32.3021 15.9219 34.1198 15.9219ZM32.8854 6.51565C32.9531 6.51565 33.0208 6.47919 33.0937 6.47919C34.1927 6.47919 35.4271 8.10419 35.7708 10.1094C36.1458 12.2552 35.4583 14.2969 34.3281 14.5052C33.1614 14.7136 31.8229 13.0156 31.4427 10.9063C31.0677 8.7969 31.75 6.72398 32.8854 6.51565Z" fill="#FFEBCD"/>
</g>
</svg>
