<svg width="114" height="155" viewBox="0 0 114 155" fill="none" xmlns="http://www.w3.org/2000/svg">
<path fill-rule="evenodd" clip-rule="evenodd" d="M70.1055 0.197937C70.0013 0.197937 69.8971 0.197937 69.7982 0.203145C68.7461 0.255228 67.7982 0.708354 66.9128 1.2344C66.5378 1.45315 66.1732 1.68752 65.7982 1.90627C65.6419 1.99481 65.4857 2.08335 65.3242 2.15627C65.2409 2.19273 65.1576 2.22919 65.069 2.25523C64.9701 2.21356 64.8763 2.16669 64.7773 2.12502C64.6315 2.06252 64.4857 2.01044 64.3294 1.96877C63.918 1.85419 63.4805 1.83856 63.0638 1.94794C62.8555 2.00523 62.6576 2.08856 62.4701 2.18752C62.0169 2.4271 61.6367 2.78127 61.3451 3.20315C61.1211 3.52085 60.9544 3.88023 60.8138 4.24481C60.7096 4.51565 60.6211 4.7969 60.5221 5.07815C60.4909 5.16669 60.4544 5.26044 60.4128 5.34898C60.4023 5.38023 60.3867 5.40627 60.3711 5.43752C60.3659 5.44273 60.3659 5.44794 60.3607 5.45835C60.3607 5.45835 60.3555 5.45835 60.3555 5.46356C60.3294 5.4896 60.3034 5.51565 60.2773 5.54169C60.2044 5.60419 60.1315 5.66669 60.0482 5.72398C59.8398 5.87502 59.6055 6.00002 59.3711 6.1094C59.0586 6.25002 58.7409 6.36981 58.4232 6.4844C57.9909 6.64065 57.5534 6.78127 57.1211 6.93231C56.6107 7.11981 56.1003 7.31773 55.6211 7.57294C55.4023 7.68752 55.194 7.81252 54.9909 7.95315C54.6263 8.21356 54.3034 8.52606 54.0169 8.86981C53.5951 9.38023 53.2565 9.95315 52.918 10.5156C52.7878 10.7344 52.6576 10.9479 52.5169 11.1511C52.3971 11.3334 52.2617 11.5104 52.1055 11.6615C52.0326 11.7344 51.9544 11.8021 51.8607 11.849C51.7721 11.9011 51.6732 11.9323 51.569 11.9427C51.444 11.9584 51.3138 11.9375 51.1888 11.9063C51.0534 11.875 50.918 11.8281 50.7826 11.7761C50.3763 11.6198 49.9909 11.4219 49.5898 11.25C49.0586 11.0261 48.5065 10.8438 47.9336 10.7865C47.6471 10.7604 47.3659 10.7604 47.0794 10.7969C46.7044 10.8386 46.3294 10.9427 45.9753 11.0938C45.5742 11.2656 45.2044 11.5 44.8867 11.8073C44.6523 12.0313 44.4544 12.2917 44.293 12.5729C44.0326 13.0261 43.8763 13.5209 43.7721 14.0261C43.7409 14.1667 43.7148 14.3073 43.6888 14.4427C43.6836 14.4115 43.6732 14.375 43.668 14.3386C43.4648 13.5313 43.1628 12.724 42.5273 12.1563C42.3398 11.9948 42.1367 11.8594 41.918 11.75C41.7409 11.6667 41.5586 11.599 41.3711 11.5573C40.2669 11.2969 39.1523 11.7448 38.2148 12.3021C38.0534 12.3959 37.8971 12.4948 37.7409 12.599C37.5326 12.7292 37.3346 12.875 37.1367 13.0156C36.9284 13.1719 36.7201 13.3281 36.5169 13.4896C36.4284 13.5573 36.3346 13.6302 36.2513 13.7031C36.1523 13.7917 36.069 13.8854 35.9909 13.9844C35.8086 14.2136 35.6576 14.4636 35.5117 14.7084C35.3242 15.0313 35.1471 15.3542 34.9753 15.6823C34.4596 16.6667 33.9701 17.6719 33.4909 18.6771C32.918 19.8802 32.3555 21.0938 31.8138 22.3125C31.5534 22.8854 31.2982 23.4584 31.0638 24.0417C30.9648 24.2813 30.8607 24.5209 30.8086 24.7709C30.7982 24.8386 30.7878 24.9011 30.7826 24.9688C30.7773 25.0365 30.7721 25.099 30.7773 25.1667C30.7826 25.2813 30.8034 25.3959 30.8242 25.5104C30.8294 25.5417 30.8398 25.5729 30.8503 25.599C30.8607 25.6354 30.8659 25.6667 30.8763 25.6979C30.918 25.8229 30.9648 25.9479 31.0221 26.0677C31.2305 26.5209 31.5482 26.9115 31.944 27.2188C32.0326 27.2865 32.1263 27.3542 32.2201 27.4167C32.1628 27.5 32.0951 27.6094 32.0065 27.6615C31.9388 27.6979 31.8398 27.7031 31.7669 27.7084C31.5951 27.7136 31.4284 27.7031 31.2617 27.6875C30.7305 27.6406 30.1992 27.5781 29.668 27.6042C29.2357 27.625 28.8086 27.7031 28.4023 27.8542C27.6576 28.1302 27.0273 28.6459 26.5482 29.2709C26.2201 29.7031 25.9648 30.1823 25.7461 30.6771C25.5638 31.0938 25.4023 31.5209 25.2096 31.9375C25.0794 32.224 24.9284 32.5104 24.7096 32.7448C24.6367 32.8229 24.5586 32.8906 24.4701 32.9531C24.4596 32.9584 24.4492 32.9688 24.4388 32.974C24.4076 32.9792 24.3711 32.9896 24.3346 32.9948C24.2148 33.0209 24.0951 33.0469 23.9753 33.0677C23.6107 33.1354 23.2461 33.2031 22.8867 33.2865C22.7409 33.3177 22.5898 33.349 22.444 33.3906C21.668 33.5938 20.8451 33.9063 20.3919 34.6146C20.319 34.724 20.2617 34.8386 20.2148 34.9531C20.1888 35.0261 20.168 35.099 20.1471 35.1719C19.7357 34.7344 19.2305 34.4011 18.6367 34.25C17.9336 34.0677 17.2096 34.1719 16.5482 34.4531C16.1732 34.6094 15.8242 34.8334 15.5378 35.125C15.2409 35.4323 15.0221 35.8021 14.8971 36.2084C14.6784 36.9011 14.7461 37.6406 14.9388 38.3229C15.0586 38.7448 15.2201 39.1511 15.4023 39.5469C15.6784 40.1459 16.0013 40.7188 16.3242 41.2917C16.4909 41.5938 16.668 41.8959 16.8242 42.2084C16.8763 42.3073 16.9284 42.4115 16.9753 42.5156C16.9492 42.5365 16.918 42.5573 16.8919 42.5781C16.7201 42.6927 16.5326 42.7813 16.3451 42.8698C16.043 43 15.7305 43.1146 15.4232 43.2344C15.0326 43.3802 14.6419 43.5261 14.2617 43.6979C13.8294 43.8906 13.4076 44.1146 13.0221 44.3959C12.5273 44.75 12.0951 45.1979 11.7878 45.7292C11.6732 45.9271 11.5794 46.1302 11.5013 46.3386C11.418 46.5729 11.3555 46.8125 11.319 47.0573C11.2721 47.3386 11.2617 47.625 11.2878 47.9063C11.3086 48.1094 11.3398 48.3073 11.3919 48.5C11.6523 49.5313 12.319 50.3802 13.0221 51.1615C13.2669 51.4323 13.5221 51.7031 13.7669 51.9792C13.8555 52.0834 13.944 52.1875 14.0221 52.2969C14.0378 52.3229 14.0534 52.349 14.0742 52.375C14.043 52.5313 13.9909 52.6823 13.9336 52.8334C13.8555 53.0469 13.7773 53.2604 13.7044 53.4792C13.6107 53.7656 13.5378 54.0625 13.5013 54.3698C13.4544 54.8021 13.4909 55.2448 13.6419 55.6563C13.7253 55.8802 13.8398 56.0938 13.9805 56.2865C14.2096 56.5938 14.5221 56.8386 14.8711 57.0104C15.0378 57.0886 15.2096 57.1563 15.3867 57.2136C15.4753 57.2448 15.569 57.2656 15.6628 57.2969C15.6576 57.3073 15.6523 57.3177 15.6471 57.3229C15.5846 57.4479 15.5221 57.5729 15.4648 57.6927C15.2982 58.0469 15.1732 58.4219 15.1211 58.8073C15.0846 59.1198 15.0898 59.4427 15.1419 59.7552C15.1888 60.0417 15.2721 60.3177 15.4128 60.5781C15.5638 60.8438 15.7565 61.0781 15.9805 61.2865C15.793 61.3854 15.6003 61.4844 15.418 61.5938C15.0794 61.7969 14.7669 62.0365 14.5065 62.3334C14.0378 62.875 13.7461 63.6094 13.8138 64.3334C13.8607 64.7969 14.0378 65.2448 14.2617 65.6563C14.5273 66.1511 14.8503 66.6094 15.1888 67.0573C15.3659 67.2969 15.5482 67.5365 15.7305 67.7761C15.819 67.8906 15.9076 68.0156 15.9909 68.1406C15.9909 68.1459 15.9909 68.1511 15.9961 68.1563C16.0065 68.25 16.0065 68.3438 16.0065 68.4323C16.0013 68.6927 15.9596 68.9479 15.9076 69.2031C15.8294 69.5573 15.7253 69.9115 15.6159 70.2604C15.4909 70.6459 15.3555 71.0313 15.2201 71.4167C15.0794 71.8125 14.9388 72.2031 14.8034 72.599C14.694 72.9271 14.5898 73.2604 14.4961 73.5938C14.1315 74.8854 13.9076 76.2917 14.3659 77.5886C14.4336 77.7813 14.5169 77.9688 14.6107 78.1511C14.7773 78.4584 14.9753 78.7448 15.2305 78.9844C15.4284 79.1667 15.6523 79.3229 15.8971 79.4375C16.2878 79.625 16.6992 79.7084 17.1211 79.724C16.8555 79.8854 16.6159 80.0886 16.4128 80.3229C16.2461 80.5156 16.1055 80.724 15.9805 80.9427C15.8919 81.1094 15.8086 81.2813 15.7513 81.4636C15.6628 81.724 15.6211 82.0052 15.6263 82.2865C15.6263 82.5052 15.6471 82.724 15.6888 82.9427C15.7044 83.0573 15.7305 83.1771 15.7513 83.2917C15.7617 83.349 15.7721 83.4063 15.7773 83.4636C15.7721 83.474 15.7721 83.4792 15.7669 83.4896C15.7357 83.5573 15.6992 83.6302 15.6523 83.6875C15.5898 83.7136 15.5221 83.7292 15.4544 83.7448C15.3607 83.7656 15.2617 83.7865 15.1628 83.8073C14.8607 83.875 14.5638 83.9688 14.2826 84.0938C13.8971 84.2656 13.5482 84.4948 13.2409 84.7761C13.0273 84.974 12.819 85.1823 12.668 85.4271C12.4961 85.7084 12.3815 86.0209 12.2773 86.3334C12.1576 86.6927 12.0482 87.0573 11.9232 87.4167C11.8451 87.6563 11.7565 87.8959 11.6576 88.1354C11.6211 88.2188 11.5794 88.3021 11.5378 88.3854C11.418 88.4011 11.2982 88.3646 11.1888 88.3281C11.0169 88.2656 10.8503 88.1875 10.6888 88.1094C10.5013 88.0209 10.3086 87.9323 10.1159 87.8594C9.68359 87.6875 9.22526 87.5781 8.75651 87.5729C7.94401 87.5625 7.19401 87.8646 6.54297 88.3281C6.31901 88.4896 6.10547 88.6667 5.90234 88.8542C5.58464 89.1511 5.29297 89.4844 5.05859 89.849C4.73568 90.349 4.52734 90.9167 4.47005 91.5104C4.44922 91.7604 4.45443 92.0104 4.48568 92.2604C4.55339 92.7761 4.72526 93.2656 4.95964 93.724C5.15234 94.099 5.38151 94.4531 5.61589 94.8021C5.78255 95.0469 5.94922 95.2865 6.10547 95.5417C6.15755 95.625 6.20443 95.7084 6.2513 95.7969C6.16797 95.7969 6.08464 95.8021 6.0013 95.8021C5.49609 95.8021 4.99609 95.7761 4.49609 95.7709H4.38672C4.06901 95.6875 3.72526 95.6927 3.39714 95.8125C3.36589 95.8229 3.39193 95.8229 3.36589 95.8229C3.35026 95.8229 3.33984 95.8334 3.32422 95.8386C3.29818 95.849 3.27214 95.8542 3.24609 95.8646C3.14714 95.9063 3.04818 95.9427 2.94922 95.9896C2.51693 96.1771 2.10547 96.4219 1.76172 96.7448C1.53776 96.9531 1.34505 97.1927 1.19922 97.4636C1.08984 97.6667 1.00651 97.8802 0.954427 98.1042C0.91276 98.2917 0.886719 98.4844 0.886719 98.6823C0.886719 98.8334 0.897134 98.9896 0.923177 99.1406C1.07422 100.083 1.68359 100.88 2.31901 101.568C2.72526 102.005 3.15755 102.411 3.57422 102.833C3.71484 102.979 3.85547 103.12 3.99089 103.271C4.08463 103.38 4.18359 103.495 4.26172 103.625C4.33984 103.932 4.44401 104.234 4.58984 104.516C4.85026 105.016 5.20964 105.458 5.64714 105.813C5.98568 106.089 6.36589 106.318 6.77214 106.5C7.33464 106.76 7.9388 106.932 8.55339 107.057C9.38151 107.229 10.2201 107.318 11.0638 107.417C11.5794 107.474 12.0951 107.531 12.6003 107.641C12.7513 107.672 12.9023 107.708 13.0482 107.755C13.168 107.797 13.293 107.839 13.3971 107.917C13.6576 108.104 13.8086 108.401 13.9232 108.688C14.1055 109.125 14.2305 109.583 14.3919 110.026C14.569 110.516 14.7826 110.99 15.0794 111.427C15.4336 111.943 15.8971 112.385 16.444 112.703C17.6211 113.391 19.043 113.464 20.3763 113.344C20.8503 113.302 21.3294 113.25 21.7878 113.12C22.1836 113.01 22.569 112.854 22.944 112.677C23.3711 112.479 23.7826 112.255 24.1992 112.031C24.4961 111.87 24.793 111.714 25.1055 111.573C25.3398 111.469 25.5794 111.37 25.8294 111.313C25.9648 111.281 26.1107 111.255 26.2513 111.276C26.319 111.286 26.3815 111.307 26.4492 111.333C26.6263 111.406 26.7773 111.521 26.918 111.651C27.0586 111.781 27.1784 111.927 27.3034 112.073C27.4857 112.286 27.6576 112.505 27.8398 112.714C28.1367 113.057 28.4544 113.375 28.819 113.646C29.2617 113.979 29.7669 114.24 30.2982 114.411C30.6784 114.531 31.069 114.599 31.4596 114.667C31.9388 114.745 32.418 114.813 32.8971 114.87C34.1784 115.021 35.4701 115.109 36.7461 115.318C37.8034 115.484 38.8659 115.74 39.8346 116.214C39.9544 116.271 40.069 116.328 40.1836 116.396C40.2721 116.438 40.3503 116.484 40.4232 116.547C40.4961 116.615 40.5638 116.693 40.6263 116.771C40.7305 116.901 40.8242 117.042 40.9128 117.182C41.1263 117.51 41.319 117.849 41.5378 118.172C41.8398 118.615 42.1888 119.036 42.6055 119.38C42.8451 119.573 43.1055 119.74 43.3763 119.88C43.7982 120.089 44.2513 120.234 44.7148 120.333C45.1159 120.417 45.5221 120.474 45.9284 120.526C46.2721 120.573 46.6211 120.62 46.9544 120.708C47.1576 120.766 47.3659 120.839 47.5273 120.974C47.6419 121.073 47.7201 121.193 47.7982 121.323C47.8555 121.411 47.9076 121.5 47.9544 121.594C47.8034 121.917 47.7461 122.281 47.8034 122.641C47.8555 122.953 47.9857 123.25 48.1732 123.505C48.4232 123.849 48.7565 124.135 49.0794 124.406C49.2201 124.521 49.3607 124.635 49.5013 124.75C49.6576 124.875 49.8242 125 50.0013 125.109C50.3555 125.323 50.7461 125.469 51.1471 125.578C51.5221 125.677 51.9076 125.74 52.2878 125.813C52.3919 125.833 52.5013 125.859 52.6055 125.885V125.891C52.6211 126.151 52.6211 126.411 52.6263 126.672C52.6263 127.099 52.6159 127.526 52.6107 127.948C52.6107 128.224 52.6003 128.5 52.6263 128.771C52.6315 128.865 52.6471 128.953 52.6628 129.042C52.8138 129.953 53.0221 130.87 53.3971 131.719C53.6576 132.302 53.9961 132.849 54.4232 133.328C55.0065 133.979 55.7253 134.49 56.4805 134.922C56.8294 135.12 57.1888 135.302 57.5482 135.479C57.7773 135.589 58.0013 135.708 58.2409 135.781C58.5065 135.865 58.7826 135.917 59.0534 135.964C59.4023 136.026 59.7565 136.078 60.1107 136.125C61.1159 136.266 62.1315 136.38 63.1419 136.479C63.8034 136.542 64.4701 136.599 65.1315 136.625C65.3607 136.635 65.5846 136.641 65.8138 136.635C66.0326 136.63 66.2513 136.615 66.4648 136.563C66.7357 136.495 66.9961 136.37 67.2305 136.224C67.7826 135.885 68.2148 135.401 68.6055 134.896C68.7669 134.688 68.9232 134.474 69.0846 134.271C69.1003 134.318 69.1211 134.365 69.1419 134.411C69.2617 134.745 69.3815 135.083 69.5273 135.406C69.7148 135.828 69.9544 136.229 70.2773 136.563C70.4232 136.714 70.5846 136.844 70.7565 136.958C71.2201 137.266 71.7669 137.422 72.3242 137.422C72.8034 137.427 73.2721 137.318 73.7148 137.151C73.9544 137.063 74.1836 136.964 74.3971 136.823C74.5951 136.688 74.7721 136.531 74.9492 136.37C75.1107 136.214 75.2669 136.057 75.4232 135.896C75.8503 135.453 76.2669 134.995 76.694 134.552C76.7826 134.458 76.8763 134.37 76.9648 134.281C77.0117 134.661 77.0898 135.036 77.2461 135.391C77.3555 135.641 77.5065 135.88 77.6888 136.089C78.1628 136.63 78.8451 136.932 79.5169 137.161C79.7617 137.24 80.0065 137.313 80.2513 137.391C80.3555 137.427 80.4544 137.464 80.5534 137.505C80.5534 137.563 80.5482 137.615 80.543 137.667C80.5273 137.839 80.5013 138.005 80.4701 138.172C80.3607 138.74 80.1888 139.292 80.0065 139.839C79.4492 141.474 78.7409 143.052 78.0586 144.635C77.8503 145.115 77.6367 145.599 77.4544 146.089C77.319 146.458 77.1888 146.849 77.2044 147.25C77.2044 147.328 77.2148 147.422 77.2305 147.505C77.2409 147.563 77.2513 147.62 77.2669 147.672C77.2878 147.74 77.3086 147.802 77.3346 147.87C77.3659 147.943 77.3971 148.021 77.444 148.089C77.4961 148.177 77.5534 148.266 77.6211 148.339C77.694 148.422 77.7773 148.49 77.8555 148.563C77.8815 148.589 77.9128 148.604 77.9388 148.625C77.9648 148.646 77.9961 148.661 78.0221 148.682C78.1003 148.729 78.1836 148.776 78.2669 148.818C78.7253 149.031 79.2461 149.068 79.7409 148.958C79.8867 148.922 80.0326 148.875 80.1732 148.818C80.194 148.938 80.2148 149.052 80.2357 149.172C80.3555 149.854 80.4336 150.547 80.5898 151.224C80.7669 152 81.0534 152.786 81.6471 153.349C81.7305 153.432 81.8242 153.505 81.918 153.578C82.043 153.661 82.1732 153.74 82.3086 153.807C82.4753 153.885 82.6523 153.943 82.8294 153.984C83.0534 154.031 83.2878 154.052 83.5221 154.042C83.7878 154.026 84.0482 153.969 84.293 153.875C84.5794 153.76 84.8399 153.594 85.069 153.396C85.4023 153.109 85.6732 152.755 85.9023 152.385C86.1888 151.922 86.418 151.427 86.6211 150.927C86.8867 150.26 87.1055 149.578 87.3086 148.891C87.5898 147.927 87.8294 146.948 88.0534 145.974C88.1367 145.609 88.2096 145.25 88.3034 144.891C88.3451 144.74 88.3867 144.589 88.4284 144.443C88.5065 144.167 88.5846 143.891 88.6628 143.62C88.8763 142.875 89.0898 142.13 89.3034 141.385C90.0273 138.833 90.7148 136.266 91.2461 133.667C91.4596 132.615 91.6523 131.552 91.793 130.484C91.9023 129.651 91.9857 128.807 92.0117 127.964C92.043 126.958 92.0065 125.927 91.7669 124.943C91.7148 124.724 91.6523 124.505 91.5742 124.292C91.5169 124.135 91.4544 123.979 91.3815 123.833C91.2721 123.62 91.1367 123.422 90.9857 123.234C90.7201 122.906 90.4023 122.63 90.0638 122.38C89.8346 122.214 89.5951 122.057 89.3659 121.896C89.2565 121.818 89.1471 121.74 89.043 121.656C89.0534 121.641 89.0638 121.63 89.0742 121.615C89.1159 121.568 89.1523 121.516 89.194 121.469C89.2617 121.385 89.3346 121.307 89.4076 121.224C89.6315 120.969 89.8555 120.708 90.0534 120.427C90.3242 120.031 90.5378 119.589 90.6263 119.109C90.694 118.729 90.6888 118.323 90.5846 117.948C90.5013 117.656 90.3503 117.391 90.1888 117.141C90.0169 116.88 89.8346 116.625 89.6471 116.37C89.3086 115.906 88.9648 115.443 88.6263 114.979C87.944 114.042 87.2826 113.083 86.7044 112.078C86.5482 111.807 86.3971 111.531 86.2617 111.25C86.1315 110.974 86.0065 110.693 85.9076 110.401C85.8815 110.333 85.8659 110.26 85.8451 110.193C85.9232 110.224 86.0013 110.255 86.0794 110.281C86.3034 110.349 86.5326 110.396 86.7669 110.406C87.3971 110.443 88.0221 110.255 88.5638 109.938C88.9701 109.703 89.3242 109.401 89.668 109.089C89.7826 108.99 89.8971 108.885 90.0117 108.781C90.0794 108.729 90.1419 108.672 90.2148 108.625C90.2357 108.635 90.2565 108.646 90.2826 108.656C90.4753 108.755 90.6628 108.854 90.8607 108.938C91.5482 109.245 92.2982 109.443 93.0534 109.255C93.168 109.229 93.2826 109.193 93.3919 109.146C93.5534 109.078 93.7044 109 93.8398 108.901C93.9805 108.807 94.1107 108.693 94.2253 108.573C94.7148 108.057 94.9388 107.375 95.0221 106.688C95.0534 106.464 95.0638 106.24 95.0586 106.016C95.043 105.589 94.9596 105.167 94.7826 104.776C94.6784 104.536 94.5378 104.313 94.3711 104.109C94.2513 103.969 94.1211 103.833 93.9805 103.719C93.0117 102.906 91.6992 102.776 90.5013 102.589C90.0534 102.516 89.6003 102.438 89.1732 102.302C88.8815 102.208 88.5846 102.083 88.3503 101.88C87.918 101.505 87.7982 100.88 87.7617 100.333C87.7513 100.219 87.7513 100.099 87.7461 99.9792C87.7461 99.8334 87.7513 99.6823 87.7617 99.5313C87.7721 99.5365 87.7826 99.5417 87.7982 99.5417C88.069 99.6042 88.3607 99.6146 88.6367 99.599C88.9857 99.5834 89.3294 99.5209 89.6576 99.4271C89.7253 99.4063 89.7878 99.3854 89.8503 99.3646C89.918 99.3438 89.9857 99.3229 90.0534 99.3021C90.2669 99.224 90.4805 99.1406 90.6888 99.0521C90.9336 98.9531 91.1784 98.8438 91.4284 98.7552C91.6107 98.6927 91.8034 98.6302 91.9961 98.6459C92.1628 98.6563 92.3242 98.6875 92.4805 98.7188C92.7044 98.7709 92.9284 98.8334 93.1471 98.9011C93.5951 99.0417 94.043 99.1979 94.4961 99.3438C95.1263 99.5365 95.7669 99.7084 96.4284 99.7761C97.2565 99.8698 98.1055 99.7917 98.8867 99.5C99.0638 99.4323 99.2305 99.3542 99.3867 99.2552C99.7513 99.0261 100.053 98.7084 100.288 98.349C100.293 98.3438 100.293 98.3386 100.298 98.3334C100.329 98.4115 100.366 98.4844 100.413 98.5625C100.46 98.6406 100.507 98.7136 100.569 98.7917C100.626 98.8646 100.694 98.9427 100.762 99.0052C100.913 99.1511 101.085 99.2709 101.267 99.3698C101.491 99.4792 101.73 99.5521 101.975 99.5834C102.298 99.625 102.637 99.5938 102.949 99.5C103.533 99.3281 104.017 98.9479 104.428 98.5156C104.652 98.2761 104.855 98.0261 105.053 97.7656C105.35 97.3802 105.626 96.9792 105.918 96.5886C106.033 96.4427 106.147 96.2969 106.267 96.1563C106.272 96.1459 106.283 96.1354 106.288 96.125C106.309 96.1979 106.329 96.2604 106.345 96.3334C106.454 96.8229 106.507 97.3281 106.553 97.8281C106.579 98.1094 106.595 98.3906 106.616 98.6667C106.658 99.3386 106.694 100.005 106.762 100.672C106.824 101.318 106.918 101.979 107.126 102.599C107.34 103.214 107.694 103.786 108.241 104.156C108.376 104.245 108.517 104.318 108.663 104.38C108.814 104.438 108.97 104.484 109.132 104.51C109.324 104.547 109.522 104.557 109.72 104.542C110.001 104.526 110.283 104.458 110.548 104.354C110.871 104.234 111.173 104.057 111.454 103.859C111.632 103.734 111.803 103.604 111.97 103.458C112.579 102.922 113.059 102.25 113.329 101.479C113.413 101.245 113.475 101 113.517 100.755C113.788 99.2188 113.309 97.6719 112.746 96.2604C112.658 96.0417 112.574 95.8281 112.48 95.6094C112.241 95.0261 111.98 94.4375 111.788 93.8334C111.73 93.6511 111.673 93.4688 111.637 93.2761C111.621 93.1979 111.611 93.125 111.6 93.0417C111.611 92.849 111.678 92.6615 111.736 92.4844C111.819 92.2292 111.913 91.974 111.991 91.7136C112.09 91.4115 112.168 91.099 112.21 90.7813C112.262 90.3854 112.246 89.9844 112.147 89.599C112.1 89.4271 112.043 89.2656 111.965 89.1042C111.845 88.8646 111.694 88.6354 111.507 88.4427C111.251 88.1875 110.918 88.0417 110.585 87.9167C110.246 87.7865 109.897 87.6719 109.553 87.5573C108.678 87.2656 107.803 86.974 106.934 86.6563C106.96 86.6511 106.986 86.6406 107.012 86.6354C107.496 86.4584 107.965 86.2292 108.361 85.9011C108.689 85.6354 108.954 85.3021 109.189 84.9531C109.736 84.1354 110.053 83.1927 110.158 82.2188C110.22 81.6771 110.215 81.125 110.163 80.5834C110.043 79.4271 109.736 78.224 108.913 77.3542C108.741 77.1719 108.548 77.0104 108.345 76.8698C108.085 76.6875 107.798 76.5365 107.501 76.4167C107.21 76.3021 106.908 76.2084 106.611 76.1146C106.262 76 105.908 75.8854 105.647 75.6094C105.574 75.5313 105.501 75.4427 105.46 75.3438C105.418 75.2292 105.423 75.0938 105.439 74.974C105.46 74.7656 105.517 74.5573 105.579 74.3594C105.783 73.7031 106.033 73.0573 106.142 72.3802C106.241 71.7656 106.23 71.1354 106.059 70.5365C105.996 70.3073 105.908 70.0834 105.788 69.8698C105.569 69.4844 105.257 69.1563 104.923 68.8646C104.611 68.5834 104.277 68.3386 103.96 68.0625C103.866 67.9792 103.772 67.8906 103.684 67.7969C103.658 67.7709 103.637 67.7448 103.616 67.7188C103.621 67.7084 103.621 67.7031 103.626 67.6979C103.658 67.6354 103.694 67.5781 103.736 67.5209C103.861 67.349 104.001 67.1875 104.147 67.0365C104.376 66.7969 104.621 66.5729 104.866 66.3542C105.105 66.1354 105.35 65.9219 105.595 65.7031C106.335 65.0469 107.074 64.375 107.678 63.5886C108.22 62.8906 108.642 62.0886 108.798 61.2136C108.845 60.9636 108.866 60.7031 108.861 60.4427C108.861 60.2084 108.84 59.974 108.793 59.7396C108.704 59.2396 108.522 58.7552 108.277 58.3073C108.163 58.1042 108.043 57.9011 107.892 57.724C107.704 57.5052 107.475 57.3229 107.23 57.1771C106.824 56.9323 106.366 56.7813 105.908 56.6719C105.293 56.5365 104.663 56.474 104.033 56.4375C103.392 56.4011 102.746 56.4011 102.1 56.4063C101.371 56.4167 100.642 56.4479 99.918 56.4844C98.1107 56.5781 96.3086 56.7188 94.5065 56.8281C93.6471 56.875 92.7878 56.9219 91.9232 56.9375C91.2409 56.9531 90.5482 56.9584 89.8659 56.8959C89.694 56.8802 89.5221 56.8594 89.3503 56.8281C89.1576 56.625 88.9753 56.4167 88.793 56.2031C88.4961 55.849 88.2096 55.4844 87.918 55.125C87.3607 54.4323 86.8086 53.7448 86.2357 53.0677C85.7721 52.5261 85.2982 51.9896 84.7826 51.4896C84.543 51.2552 84.2982 51.0313 84.0326 50.8229C83.8555 50.6875 83.6784 50.5521 83.4805 50.4427C83.2305 50.3021 82.9596 50.2031 82.694 50.1094C82.3398 49.9844 81.9753 49.8698 81.6159 49.7604C80.5898 49.4427 79.5482 49.1615 78.5065 48.8959C77.8815 48.7344 77.2565 48.5834 76.6263 48.4584C76.2096 48.3802 75.7617 48.2969 75.3398 48.3802C75.2148 48.4063 75.0951 48.4427 74.9753 48.4792C74.8086 48.5261 74.6419 48.5834 74.4753 48.6406C73.9284 48.8386 73.4023 49.0781 72.8711 49.3125C72.4128 49.5104 71.9492 49.7136 71.4648 49.8438C71.168 49.9219 70.8555 49.974 70.5482 49.9636C70.3138 49.9531 70.0846 49.9063 69.8659 49.8229C69.7826 49.7917 69.6992 49.7552 69.6211 49.7188C69.5742 49.6979 69.5326 49.6771 69.4909 49.6459C69.4336 49.6042 69.3867 49.5469 69.3398 49.4896C69.2617 49.3959 69.1888 49.2917 69.1263 49.1875C68.9596 48.9219 68.8034 48.6459 68.6419 48.375C68.4753 48.099 68.2982 47.8281 68.1003 47.5729C67.694 47.0677 67.1784 46.625 66.5638 46.3906C66.3659 46.3177 66.1576 46.2604 65.9492 46.2292C65.5221 46.1615 65.1003 46.1875 64.6732 46.2448C64.5326 46.2604 64.3971 46.2813 64.2565 46.2969C64.2201 46.3021 64.1836 46.3073 64.1471 46.3073C64.1367 46.2969 64.1315 46.2917 64.1263 46.2813C64.1159 46.25 64.1159 46.2084 64.1159 46.1771C64.1107 46.0834 64.1211 45.9948 64.1419 45.9063C64.1628 45.7656 64.2044 45.6302 64.2409 45.4896C64.3555 45.1094 64.5013 44.7344 64.6367 44.3594C64.918 43.5781 65.1628 42.7656 65.1211 41.9271C65.1107 41.7552 65.0898 41.5834 65.0586 41.4167C65.0273 41.2761 64.9909 41.1354 64.9492 41C64.8867 40.7865 64.819 40.5781 64.7461 40.3698C64.4648 39.5781 64.1211 38.8125 63.7565 38.0573C63.2148 36.9375 62.6315 35.8386 62.0898 34.7188C61.9336 34.4011 61.7878 34.0834 61.6471 33.7604C61.5638 33.5677 61.4909 33.375 61.4076 33.1927C61.3138 32.9948 61.2096 32.8073 61.0951 32.6198C60.6263 31.8698 59.9596 31.2656 59.2148 30.7865C58.9388 30.6094 58.6576 30.4479 58.3711 30.2917C58.1523 30.1719 57.9232 30.0573 57.6992 29.9427C57.5326 29.8542 57.3607 29.7656 57.1992 29.6771C57.0586 29.599 56.9232 29.5261 56.7878 29.4427C56.6836 29.3802 56.5846 29.3177 56.4909 29.25C56.1836 29.0365 55.9023 28.7813 55.7305 28.4479C55.668 28.3229 55.6055 28.1823 55.6003 28.0417C55.5951 27.9375 55.6211 27.8386 55.6523 27.7448C55.7148 27.5469 55.819 27.3594 55.9232 27.1875C56.0742 26.9479 56.2357 26.7292 56.4076 26.5052C56.8815 25.8854 57.4023 25.2917 57.7773 24.6042C58.1836 23.875 58.444 23.0781 58.7305 22.2969C58.8398 21.9948 58.9544 21.6927 59.0898 21.4063C59.1732 21.2292 59.2617 21.0573 59.3659 20.8959C59.4544 20.7656 59.5534 20.6406 59.6628 20.5261C59.8607 20.3073 60.0898 20.1146 60.3242 19.9271C60.6419 19.6667 60.9753 19.4219 61.3034 19.1719C61.9909 18.6511 62.6523 18.0886 63.1576 17.3854C63.3607 17.1042 63.5378 16.8021 63.6836 16.4896C63.8034 16.224 63.9023 15.9479 64.0117 15.6719C64.1888 15.2188 64.3711 14.7604 64.5742 14.3125C64.8086 13.7761 65.0742 13.25 65.4076 12.7604C65.7669 12.2292 66.2044 11.7552 66.668 11.3177C66.8919 11.1042 67.1211 10.9063 67.3555 10.7084C67.444 10.6354 67.5326 10.5625 67.6211 10.4896C67.668 10.4531 67.7148 10.4115 67.7617 10.3802C67.9857 10.2188 68.2201 10.0781 68.4544 9.93752C68.7826 9.7396 69.1159 9.54169 69.444 9.34377C70.1523 8.91669 70.8503 8.46877 71.5117 7.97398C72.0326 7.58856 72.5326 7.16669 72.9701 6.68752C73.6315 5.96356 74.1576 5.08335 74.1992 4.08335C74.2096 3.88544 74.1992 3.68752 74.168 3.4896C74.1315 3.26044 74.069 3.04169 73.9805 2.82294C73.8763 2.55731 73.7305 2.3021 73.5586 2.06773C73.3919 1.84898 73.2044 1.64585 73.0013 1.45835C72.8242 1.2969 72.6419 1.14585 72.4492 1.00523C72.0586 0.729187 71.6315 0.510436 71.1732 0.369812C70.9232 0.296895 70.668 0.244813 70.4128 0.21877C70.3086 0.208354 70.2044 0.197937 70.1055 0.197937ZM70.0221 3.38544C70.069 3.38544 70.1159 3.39065 70.1628 3.39585C70.3086 3.4271 70.4388 3.50002 70.5586 3.58335C70.6784 3.66669 70.7878 3.76044 70.8919 3.8646C70.9232 3.89585 70.9544 3.9271 70.9805 3.96356C70.9805 3.96877 70.9857 3.97398 70.9909 3.97919C70.9857 3.99481 70.9805 4.01044 70.9701 4.02606C70.9544 4.06773 70.9284 4.1146 70.9023 4.15106C70.8294 4.27085 70.7461 4.38023 70.6523 4.4844C70.3763 4.8021 70.0482 5.07294 69.7148 5.32815C68.9805 5.89065 68.194 6.36981 67.4023 6.84377C67.1315 7.00523 66.8555 7.16669 66.5846 7.33335C66.3607 7.47398 66.1315 7.6146 65.918 7.76565C65.7721 7.86981 65.6367 7.97919 65.5013 8.09377C65.3607 8.20835 65.2201 8.32294 65.0794 8.44273C64.3607 9.06252 63.6784 9.7344 63.1003 10.4844C62.6367 11.0834 62.2461 11.7344 61.918 12.4167C61.6107 13.0417 61.3451 13.6875 61.0898 14.3334C61.0221 14.4948 60.9596 14.6615 60.8971 14.8229C60.8451 14.9479 60.8034 15.0729 60.7461 15.1927C60.6784 15.3334 60.5951 15.4636 60.5013 15.5834C60.2461 15.9167 59.918 16.1875 59.5898 16.4479C59.1836 16.7656 58.7617 17.0677 58.3607 17.3906C57.8451 17.8021 57.3555 18.2448 56.9492 18.7656C56.6888 19.0938 56.4753 19.4531 56.2826 19.8281C55.9596 20.4688 55.7305 21.1459 55.4857 21.8177C55.3763 22.1042 55.2721 22.3906 55.1471 22.6719C55.0794 22.8281 55.0117 22.9792 54.9232 23.1198C54.7773 23.3698 54.6003 23.6042 54.4232 23.8281C54.1888 24.1302 53.9492 24.4219 53.7201 24.7292C53.4544 25.0834 53.1992 25.4479 52.9857 25.8386C52.668 26.4271 52.4388 27.0677 52.3867 27.7396C52.3711 27.9688 52.3763 28.1979 52.3971 28.4271C52.4336 28.7448 52.5117 29.0521 52.6211 29.3542C52.7669 29.7552 52.9648 30.1406 53.2148 30.4896C53.4596 30.8438 53.7565 31.1615 54.0794 31.4427C54.5951 31.8854 55.1784 32.2396 55.7721 32.5573C56.0794 32.7188 56.3867 32.875 56.694 33.0365C56.9336 33.1667 57.168 33.2969 57.4023 33.4427C57.7982 33.6927 58.1784 33.9896 58.4128 34.4063C58.4648 34.5 58.5065 34.6042 58.5482 34.7084C58.5898 34.8125 58.6367 34.9167 58.6836 35.0209C58.8346 35.375 58.9961 35.724 59.1628 36.0677C59.6888 37.1615 60.2565 38.2344 60.7878 39.3281C61.0898 39.9531 61.3815 40.5834 61.6263 41.2344C61.694 41.4219 61.7617 41.6094 61.819 41.8021C61.8398 41.8594 61.8555 41.9167 61.8711 41.974C61.8815 42.0052 61.8867 42.0417 61.8919 42.0729C61.8971 42.1719 61.8815 42.2709 61.8659 42.3646C61.8451 42.4844 61.8138 42.599 61.7826 42.7188C61.668 43.099 61.5221 43.4688 61.3867 43.8438C61.0742 44.7136 60.8034 45.6198 60.9023 46.5625C60.918 46.7344 60.9492 46.9063 60.9961 47.0781C61.0534 47.2917 61.1315 47.5 61.2253 47.7031C61.5951 48.4584 62.2513 49.0938 63.0586 49.3646C63.5794 49.5469 64.1263 49.5573 64.668 49.4896C64.8242 49.474 64.9753 49.4479 65.1263 49.4271C65.2201 49.4167 65.3138 49.4063 65.4076 49.4063C65.418 49.4167 65.4284 49.4271 65.4388 49.4375C65.4805 49.4792 65.5169 49.5209 65.5482 49.5625C65.6523 49.6875 65.7409 49.8229 65.8294 49.9636C66.0794 50.3802 66.3086 50.8073 66.5846 51.2084C66.8503 51.5834 67.1628 51.9323 67.5326 52.2136C67.8034 52.4167 68.1003 52.5729 68.4076 52.7084C69.0378 52.9896 69.7201 53.1563 70.4128 53.1823C71.1315 53.2136 71.8451 53.0938 72.5326 52.8906C73.1315 52.7136 73.7096 52.4688 74.2826 52.2188C74.6732 52.0469 75.0638 51.8698 75.4648 51.7188C75.5846 51.6719 75.7044 51.6302 75.8294 51.5938H75.8346C75.9388 51.6146 76.0482 51.6354 76.1523 51.6563C76.4701 51.7188 76.7878 51.7969 77.1055 51.8698C78.1992 52.1354 79.2826 52.4323 80.3607 52.7552C80.7096 52.8594 81.0586 52.9636 81.4023 53.0834C81.5221 53.1198 81.6419 53.1615 81.7617 53.2084C81.8034 53.224 81.8451 53.2396 81.8867 53.2604C81.9076 53.2709 81.9284 53.2865 81.944 53.3021C82.0117 53.349 82.069 53.3959 82.1315 53.4479C82.3086 53.5938 82.4701 53.7552 82.6315 53.9167C83.1315 54.4219 83.5951 54.9584 84.0482 55.5052C84.8398 56.4531 85.5898 57.4323 86.3867 58.375C86.6107 58.6406 86.8398 58.9063 87.0846 59.1563C87.2826 59.3542 87.5013 59.5469 87.7513 59.6875C87.9753 59.8125 88.2096 59.8854 88.4544 59.9427C89.1055 60.099 89.7826 60.1459 90.4492 60.1667C91.2773 60.1979 92.1107 60.1771 92.9388 60.1459C95.2409 60.0521 97.543 59.8542 99.8451 59.7292C100.543 59.6927 101.241 59.6667 101.939 59.6511C102.522 59.6406 103.1 59.6406 103.684 59.6667C104.105 59.6875 104.533 59.7136 104.949 59.7865C105.085 59.8125 105.225 59.8438 105.355 59.8802C105.387 59.8906 105.413 59.9011 105.439 59.9115C105.465 59.9584 105.491 60.0104 105.512 60.0625C105.6 60.2865 105.626 60.5104 105.569 60.7396C105.496 61.0104 105.35 61.2552 105.189 61.4792C104.965 61.7969 104.699 62.0834 104.423 62.3594C103.85 62.9271 103.23 63.4479 102.626 63.9896C102.215 64.3646 101.803 64.75 101.439 65.1771C100.845 65.8646 100.366 66.6823 100.319 67.6146C100.314 67.8073 100.324 68.0052 100.35 68.1979C100.376 68.3542 100.413 68.5052 100.46 68.6511C100.71 69.4219 101.251 70.0261 101.855 70.5469C102.095 70.7552 102.34 70.9479 102.585 71.1459C102.668 71.2188 102.757 71.2917 102.84 71.3698C102.866 71.3959 102.897 71.4271 102.923 71.4584C102.923 71.4688 102.928 71.474 102.928 71.4792C102.939 71.5313 102.939 71.5834 102.939 71.6354C102.934 71.8073 102.897 71.9792 102.855 72.1406C102.798 72.349 102.73 72.5521 102.663 72.7552C102.574 73.0313 102.48 73.3073 102.397 73.5886C102.257 74.099 102.152 74.6198 102.158 75.1511C102.158 75.9011 102.376 76.6198 102.788 77.2448C103.262 77.9584 103.944 78.5156 104.715 78.875C104.949 78.9844 105.194 79.0729 105.439 79.1563C105.59 79.2084 105.746 79.2552 105.897 79.3073C106.012 79.3438 106.126 79.3802 106.236 79.4219C106.329 79.4584 106.439 79.5 106.517 79.5729C106.579 79.6354 106.621 79.7188 106.658 79.8021C106.73 79.9636 106.777 80.1406 106.814 80.3125C106.845 80.474 106.871 80.6302 106.887 80.7917C106.97 81.4792 106.939 82.2084 106.637 82.8438C106.574 82.974 106.496 83.099 106.413 83.2136C106.366 83.2761 106.319 83.3334 106.272 83.3906C106.194 83.4427 106.116 83.4792 106.033 83.5156C105.949 83.5469 105.861 83.5781 105.777 83.6094C105.491 83.7031 105.204 83.7761 104.918 83.8542C104.095 84.0834 103.251 84.3594 102.658 85.0052C102.559 85.1146 102.47 85.2344 102.392 85.3594C102.309 85.4948 102.236 85.6354 102.178 85.7865C102.079 86.0521 102.027 86.3334 102.027 86.6146C102.027 86.8125 102.043 87.0156 102.095 87.2084C102.137 87.349 102.189 87.4792 102.257 87.6042C102.611 88.2761 103.329 88.6719 103.991 88.9844C104.142 89.0573 104.298 89.125 104.449 89.1927C104.642 89.2761 104.835 89.3542 105.033 89.4323C105.303 89.5417 105.579 89.6406 105.855 89.7396C106.215 89.875 106.579 90 106.944 90.125C107.533 90.3281 108.121 90.5209 108.704 90.7188C108.751 90.7344 108.798 90.75 108.845 90.7709C108.788 90.9636 108.72 91.1563 108.652 91.349C108.548 91.6511 108.454 91.9584 108.392 92.2761C108.335 92.5938 108.309 92.9115 108.324 93.2344C108.21 93.1302 108.085 93.0313 107.949 92.9427C107.793 92.849 107.626 92.7656 107.454 92.6979C107.21 92.6042 106.949 92.5469 106.689 92.5261C106.454 92.5052 106.215 92.5104 105.98 92.5469C105.814 92.5781 105.652 92.6198 105.496 92.6771C105.048 92.8438 104.652 93.1198 104.303 93.4427C103.913 93.8073 103.579 94.2292 103.257 94.6563C103.241 94.6771 103.225 94.6979 103.21 94.7188C103.142 94.5625 103.069 94.4063 102.97 94.2656C102.85 94.0781 102.699 93.9115 102.527 93.7709C102.345 93.625 102.142 93.5052 101.928 93.4167C101.408 93.2031 100.835 93.1875 100.283 93.2761C100.158 93.2917 100.033 93.3177 99.9076 93.3542C99.7096 93.4115 99.5169 93.4896 99.3346 93.5938C98.9336 93.8281 98.6055 94.1667 98.3555 94.5625C98.0951 94.9792 97.9284 95.4479 97.7721 95.9115C97.7201 96.0625 97.668 96.2136 97.6055 96.3646C97.5951 96.4011 97.5742 96.4375 97.5586 96.474C97.543 96.4792 97.5326 96.4844 97.5169 96.4844C97.3659 96.5209 97.2149 96.5313 97.0638 96.5261C96.6107 96.5209 96.1628 96.4063 95.7253 96.2813C95.2513 96.1406 94.7826 95.9688 94.3034 95.8177C93.9336 95.6979 93.5534 95.5886 93.1732 95.5052C92.6888 95.3959 92.1888 95.3334 91.6992 95.3594C91.1784 95.3959 90.6732 95.5261 90.1888 95.7031C89.8398 95.8334 89.5065 95.9896 89.1576 96.1198C89.0898 96.1459 89.0273 96.1667 88.9596 96.1927C88.8503 96.2292 88.7409 96.2709 88.6211 96.2917C88.6055 96.2969 88.5899 96.2969 88.569 96.3021C88.5169 96.2552 88.4596 96.2136 88.4076 96.1719C88.2148 96.0209 88.0221 95.8802 87.8086 95.7709C87.5586 95.6354 87.2878 95.5417 87.0065 95.5052C86.5586 95.4531 86.1003 95.5365 85.7044 95.7552C85.5013 95.8698 85.319 96.0104 85.1628 96.1771C84.8659 96.4896 84.668 96.8802 84.569 97.2969C84.5169 97.5052 84.4909 97.7188 84.4805 97.9375C84.4701 98.1302 84.4753 98.3281 84.4805 98.5261C84.4857 98.6459 84.4909 98.7656 84.4909 98.8854C84.4909 98.9479 84.4805 99.0104 84.4753 99.0781C84.4701 99.1667 84.4596 99.2552 84.4544 99.3438C84.4388 99.6459 84.4336 99.9479 84.444 100.245C84.4805 101.458 84.7721 102.672 85.5169 103.656C85.694 103.891 85.8919 104.104 86.1107 104.302C86.3815 104.547 86.6836 104.76 87.0013 104.938C87.5638 105.255 88.1732 105.464 88.7982 105.615C88.3451 105.859 87.9544 106.188 87.5742 106.526C87.4232 106.661 87.2721 106.797 87.1211 106.922C87.0638 106.969 87.0013 107.016 86.9388 107.057C86.9388 107.063 86.9336 107.063 86.9336 107.063C86.8815 107.036 86.8346 107.01 86.7878 106.984C86.6159 106.891 86.444 106.797 86.2669 106.719C85.8138 106.51 85.3138 106.401 84.8138 106.469C84.6628 106.49 84.5169 106.526 84.3763 106.573C84.0794 106.677 83.8086 106.849 83.569 107.047C83.2201 107.333 82.9336 107.698 82.7409 108.109C82.5898 108.432 82.4909 108.776 82.4492 109.13C82.3346 110.057 82.569 110.995 82.9076 111.859C83.168 112.51 83.4909 113.141 83.8398 113.75C84.2982 114.547 84.8034 115.318 85.3294 116.068C85.793 116.729 86.2773 117.38 86.7565 118.031C86.9128 118.245 87.069 118.458 87.2201 118.677C87.1576 118.76 87.0898 118.839 87.0169 118.922C86.8971 119.063 86.7669 119.203 86.6471 119.344C86.5742 119.432 86.5065 119.521 86.4336 119.604C86.3607 119.698 86.293 119.797 86.2305 119.891C86.1888 119.953 86.1471 120.01 86.1055 120.073C86.0482 120.161 85.9961 120.26 85.9492 120.354C85.7409 120.76 85.6159 121.208 85.6107 121.667C85.6055 121.854 85.6211 122.047 85.6576 122.234C85.7617 122.776 86.0221 123.276 86.3867 123.693C86.6315 123.969 86.9128 124.214 87.2148 124.432C87.4909 124.635 87.7773 124.818 88.0534 125.016C88.1419 125.083 88.2305 125.151 88.3138 125.224C88.3398 125.245 88.3659 125.271 88.3867 125.302C88.3971 125.307 88.4023 125.318 88.4128 125.323C88.4128 125.328 88.4128 125.333 88.418 125.333V125.339C88.418 125.344 88.4232 125.349 88.4232 125.354C88.4336 125.375 88.4388 125.391 88.444 125.411L88.4909 125.552C88.5794 125.844 88.6211 126.146 88.6523 126.443C88.694 126.87 88.6992 127.297 88.694 127.719C88.6784 128.271 88.6367 128.818 88.5742 129.365C88.5013 130.042 88.4023 130.714 88.2878 131.38C88.0586 132.724 87.7721 134.063 87.4492 135.385C87.0898 136.885 86.6888 138.375 86.2721 139.854C85.9753 140.922 85.668 141.979 85.3607 143.042C85.2617 143.396 85.1576 143.755 85.0638 144.109C85.0065 144.349 84.9544 144.583 84.8971 144.823C84.8294 145.13 84.7565 145.432 84.6836 145.74C84.4753 146.63 84.2513 147.521 83.9753 148.401C83.8763 148.729 83.7669 149.057 83.6471 149.38C83.6367 149.339 83.6315 149.292 83.6263 149.25C83.5169 148.531 83.4023 147.807 83.1523 147.12C82.9753 146.641 82.7148 146.177 82.3346 145.823C82.069 145.573 81.7565 145.38 81.4128 145.271C81.4701 145.135 81.5326 145 81.5898 144.865C81.9492 144.042 82.2982 143.214 82.6263 142.375C82.9284 141.594 83.2096 140.807 83.4492 140.005C83.5482 139.667 83.6315 139.328 83.7044 138.984C83.7878 138.594 83.8503 138.203 83.8763 137.807C83.9076 137.276 83.8711 136.729 83.6836 136.224C83.6159 136.036 83.5273 135.859 83.418 135.688C83.1523 135.271 82.7721 134.938 82.3451 134.688C82.0586 134.521 81.7513 134.396 81.4336 134.286C81.1315 134.182 80.819 134.099 80.5169 133.995C80.4336 133.964 80.3555 133.932 80.2721 133.901C80.2721 133.88 80.2669 133.865 80.2669 133.849C80.2565 133.724 80.2513 133.594 80.2461 133.469C80.2305 133.068 80.2201 132.661 80.1471 132.266C80.1003 131.995 80.0273 131.729 79.9128 131.479C79.7201 131.057 79.4232 130.688 79.0378 130.422C78.8919 130.323 78.7305 130.24 78.569 130.172C78.4232 130.115 78.2721 130.073 78.1211 130.052C77.9388 130.021 77.7617 130.016 77.5794 130.031C76.7982 130.104 76.1159 130.573 75.5326 131.063C75.2305 131.318 74.944 131.594 74.6628 131.875C74.2878 132.245 73.9284 132.63 73.569 133.016C73.3607 133.234 73.1576 133.448 72.9492 133.661C72.8294 133.792 72.6992 133.917 72.5638 134.031C72.5221 133.938 72.4857 133.839 72.444 133.74C72.3138 133.391 72.194 133.036 72.043 132.693C71.8711 132.313 71.6628 131.943 71.3867 131.625C71.1732 131.375 70.918 131.156 70.6315 130.995C70.2826 130.792 69.8919 130.667 69.4909 130.62C69.2878 130.599 69.0794 130.599 68.8763 130.625C68.7096 130.646 68.5482 130.677 68.3867 130.724C67.9284 130.865 67.5169 131.12 67.1628 131.438C66.9076 131.667 66.6888 131.922 66.4753 132.193C66.2565 132.469 66.0482 132.76 65.8242 133.042C65.7513 133.135 65.6732 133.224 65.5846 133.307L65.5794 133.313H65.4857C65.319 133.307 65.1471 133.302 64.9805 133.292C64.543 133.266 64.1003 133.229 63.6628 133.193C62.7044 133.104 61.7513 132.995 60.7982 132.865C60.4701 132.823 60.1471 132.776 59.819 132.724C59.694 132.703 59.569 132.682 59.444 132.656C59.3919 132.646 59.3398 132.635 59.2878 132.625C59.2669 132.615 59.2461 132.604 59.2253 132.594C59.1003 132.536 58.9805 132.479 58.8607 132.417C58.4805 132.229 58.1055 132.031 57.7461 131.797C57.4128 131.583 57.0951 131.344 56.8451 131.036C56.5846 130.714 56.418 130.333 56.2878 129.943C56.1888 129.641 56.1159 129.333 56.0534 129.021C56.0221 128.88 55.9961 128.74 55.9753 128.599C55.9648 128.557 55.9596 128.521 55.9544 128.479C55.9492 128.354 55.9492 128.229 55.9544 128.109C55.9544 127.911 55.9544 127.719 55.9596 127.521C55.9701 126.849 55.9805 126.172 55.9284 125.5C55.8919 125.036 55.8294 124.563 55.6107 124.151C55.5326 124.005 55.444 123.88 55.3346 123.755C55.069 123.453 54.7461 123.208 54.3867 123.021C54.1159 122.88 53.8242 122.771 53.5273 122.693C53.2773 122.62 53.0169 122.568 52.7617 122.521C52.5638 122.484 52.3711 122.448 52.1732 122.406C52.0846 122.385 51.9909 122.365 51.9023 122.333C51.8451 122.318 51.7878 122.297 51.7409 122.271C51.7253 122.26 51.7253 122.26 51.7096 122.25C51.6992 122.245 51.6888 122.234 51.6732 122.224C51.6367 122.193 51.5951 122.161 51.5586 122.13C51.5117 122.094 51.4648 122.057 51.4232 122.016C51.4232 122 51.4232 121.984 51.4284 121.969C51.4961 121.125 51.0846 120.307 50.6576 119.604C50.5065 119.354 50.3451 119.115 50.1576 118.896C49.7201 118.396 49.1732 118.01 48.5586 117.75C48.0638 117.542 47.543 117.417 47.0117 117.328C46.5534 117.25 46.0951 117.203 45.6367 117.125C45.4805 117.099 45.3294 117.068 45.1784 117.021C45.0586 116.984 44.9336 116.943 44.8242 116.88C44.7096 116.807 44.6159 116.714 44.5326 116.609C44.3919 116.443 44.2721 116.26 44.1576 116.078C43.8555 115.599 43.5742 115.109 43.2201 114.672C42.9596 114.349 42.668 114.052 42.3294 113.807C42.0951 113.635 41.8398 113.5 41.5794 113.365C41.1523 113.141 40.7148 112.948 40.2617 112.781C39.3346 112.438 38.3659 112.214 37.3919 112.052C36.4284 111.891 35.4544 111.792 34.4805 111.693C33.7669 111.62 33.0586 111.547 32.3503 111.443C32.1315 111.406 31.9128 111.37 31.6992 111.328C31.5273 111.297 31.3555 111.26 31.194 111.198C30.8451 111.052 30.5794 110.781 30.3398 110.5C30.0638 110.182 29.8086 109.854 29.5273 109.547C29.2409 109.24 28.9336 108.964 28.5898 108.724C27.944 108.281 27.1732 107.995 26.3867 107.948C26.2148 107.938 26.0482 107.943 25.8763 107.953C24.7773 108.021 23.7669 108.49 22.8086 108.995C22.4492 109.188 22.0898 109.385 21.7253 109.568C21.4753 109.693 21.2201 109.813 20.9492 109.896C20.7669 109.953 20.5846 109.974 20.3971 109.995C20.1523 110.026 19.9023 110.047 19.6576 110.057C19.3815 110.068 19.1107 110.063 18.8398 110.031C18.6576 110.01 18.4805 109.974 18.3086 109.911C18.2044 109.875 18.1107 109.823 18.0221 109.755C17.918 109.672 17.8398 109.557 17.7773 109.438C17.7044 109.313 17.6471 109.182 17.5951 109.047C17.418 108.599 17.2878 108.125 17.1159 107.672C16.944 107.208 16.7305 106.76 16.4544 106.349C16.0273 105.724 15.4492 105.198 14.7669 104.865C14.168 104.568 13.5065 104.411 12.8503 104.297C11.9544 104.146 11.0482 104.073 10.1523 103.953C9.8138 103.906 9.47526 103.854 9.14193 103.781C8.87109 103.719 8.60026 103.646 8.33984 103.547C8.19401 103.49 8.04297 103.422 7.90755 103.339C7.8138 103.276 7.72526 103.208 7.65234 103.12C7.58985 103.047 7.54818 102.964 7.52214 102.87C7.50651 102.823 7.49609 102.776 7.48047 102.724C7.45443 102.615 7.41797 102.505 7.3763 102.396C7.2513 102.078 7.0638 101.781 6.86068 101.505C6.6263 101.198 6.36589 100.911 6.10026 100.635C5.76172 100.292 5.40755 99.9584 5.06901 99.6094C4.88151 99.4167 4.69401 99.224 4.52214 99.0156C4.51172 99 4.49609 98.9792 4.48568 98.9636L4.52734 98.9479C4.54297 98.9427 4.5638 98.9323 4.57943 98.9271C4.72526 98.9271 4.86589 98.9323 5.00651 98.9375C5.40234 98.9531 5.79297 98.9636 6.18359 98.9584C6.32422 98.9531 6.45963 98.9531 6.59505 98.9479C7.38672 98.9115 8.25651 98.7761 8.83984 98.1875C8.90234 98.1302 8.95963 98.0625 9.01172 97.9948C9.1888 97.7604 9.3138 97.4792 9.40755 97.2084C9.48568 96.9792 9.53255 96.7396 9.55859 96.5C9.57422 96.3177 9.57422 96.1302 9.5638 95.9479C9.52214 95.4323 9.36068 94.9323 9.13151 94.4636C8.95963 94.1146 8.7513 93.7865 8.53255 93.4636C8.30339 93.1198 8.05859 92.7865 7.85547 92.4219C7.78255 92.2917 7.70964 92.1511 7.66276 92.0052C7.64193 91.9219 7.62109 91.8386 7.63672 91.75C7.65755 91.6511 7.72005 91.5573 7.78255 91.474C7.88151 91.3438 7.99609 91.224 8.11589 91.1146C8.23568 91.0104 8.36068 90.9063 8.49609 90.8229C8.55859 90.7865 8.63151 90.7448 8.69922 90.7292C8.7513 90.7188 8.82943 90.75 8.8763 90.7656C9.00651 90.8125 9.1263 90.8646 9.24609 90.9219C9.60547 91.0886 9.95963 91.2552 10.3398 91.3698C10.6992 91.4792 11.069 91.5417 11.4388 91.5469C11.819 91.5521 12.1992 91.4948 12.5638 91.3906C12.7982 91.3177 13.0273 91.2344 13.2409 91.1094C13.6419 90.875 13.9544 90.5156 14.194 90.1198C14.5117 89.6042 14.7253 89.0365 14.918 88.4688C15.0273 88.1459 15.1263 87.8177 15.2305 87.4948L15.3398 87.1823C15.3451 87.1667 15.3503 87.1459 15.3607 87.1302C15.3919 87.099 15.4284 87.0677 15.4648 87.0365C15.6107 86.9323 15.7982 86.9011 15.9701 86.8594C16.194 86.8125 16.4232 86.7604 16.6419 86.6927C16.9805 86.5781 17.2982 86.4167 17.5846 86.1979C18.0534 85.8386 18.3971 85.349 18.6471 84.8177C18.7305 84.6354 18.8086 84.4531 18.8607 84.2604C18.918 84.0573 18.9492 83.849 18.9596 83.6406C18.9701 83.4011 18.9492 83.1667 18.9128 82.9323C18.8867 82.7761 18.8503 82.6198 18.8242 82.4584H18.8815C19.0482 82.4479 19.2096 82.4375 19.3711 82.4115C19.819 82.3438 20.2409 82.1667 20.5951 81.8854C21.2878 81.3281 21.6107 80.4584 21.7773 79.6146C21.8555 79.2448 21.8919 78.8646 21.8659 78.4896C21.8398 78.2136 21.7826 77.9375 21.668 77.6823C21.4961 77.2761 21.1992 76.9271 20.8242 76.6927C20.668 76.599 20.5013 76.5209 20.3242 76.4636C19.9388 76.3386 19.5326 76.3125 19.1263 76.3438C18.694 76.375 18.2669 76.4636 17.8346 76.5313C17.694 76.5521 17.5586 76.5677 17.418 76.5781H17.3763C17.2669 76.3021 17.2721 75.9844 17.2982 75.6979C17.3242 75.375 17.3919 75.0573 17.4701 74.7396C17.569 74.3594 17.6888 73.9792 17.8138 73.599C18.0846 72.8021 18.3815 72.0156 18.6367 71.2136C18.8398 70.5834 19.0169 69.9427 19.1107 69.2865C19.1888 68.75 19.2096 68.2084 19.1315 67.6771C19.1003 67.4531 19.0534 67.224 18.9701 67.0104C18.8451 66.6719 18.6315 66.375 18.418 66.0834C18.1576 65.724 17.8763 65.375 17.6159 65.0104C17.4492 64.7865 17.2878 64.5573 17.1471 64.3177C17.1315 64.3021 17.1263 64.2813 17.1159 64.2656C17.1211 64.2604 17.1211 64.2604 17.1263 64.2552C17.2513 64.1875 17.3763 64.125 17.5013 64.0573C17.8034 63.8906 18.1055 63.7136 18.3711 63.4948C18.6471 63.2656 18.8867 63 19.0638 62.6927C19.2878 62.3073 19.418 61.8802 19.4544 61.4427C19.4805 61.1563 19.4648 60.875 19.3919 60.599C19.2826 60.1875 19.0534 59.8229 18.7513 59.5156C18.6107 59.3698 18.4544 59.2448 18.3034 59.1146C18.3451 59.0209 18.3919 58.9271 18.4388 58.8334C18.5794 58.5521 18.7148 58.2709 18.7982 57.9636C18.8763 57.6771 18.9076 57.375 18.8971 57.0781C18.8607 56.4323 18.5951 55.8177 18.2096 55.2969C18.0273 55.0469 17.793 54.8334 17.5273 54.6667C17.3346 54.5469 17.1315 54.4584 16.918 54.3802C16.8711 54.3646 16.819 54.349 16.7669 54.3334C16.7773 54.3021 16.7878 54.2709 16.7982 54.2396C16.8815 54.0104 16.9701 53.7865 17.043 53.5521C17.2409 52.9427 17.3346 52.3125 17.194 51.6823C17.1471 51.4844 17.0794 51.2969 16.9961 51.1146C16.7982 50.6927 16.5169 50.3177 16.2148 49.9688C15.7773 49.4531 15.2826 48.9844 14.8711 48.4427C14.7357 48.2656 14.6107 48.0781 14.5221 47.875C14.4857 47.7865 14.4492 47.6875 14.4492 47.5834C14.4544 47.4948 14.4909 47.4011 14.5326 47.3229C14.6471 47.1094 14.8711 46.9531 15.0742 46.8281C15.2721 46.7084 15.4857 46.6094 15.6992 46.5209C15.9388 46.4167 16.1836 46.3229 16.4232 46.2344C17.4805 45.8386 18.5951 45.4375 19.3815 44.5938C19.4961 44.474 19.6003 44.349 19.694 44.2136C19.8555 43.9844 19.9857 43.7292 20.0846 43.4636C20.1263 43.349 20.1576 43.2344 20.1888 43.1146C20.194 43.125 20.1992 43.1354 20.2044 43.1459C20.5742 43.7084 21.0794 44.1823 21.7253 44.4115C21.8451 44.4531 21.9753 44.4896 22.1055 44.5156C22.2721 44.5469 22.4388 44.5573 22.6055 44.5573C22.8919 44.5573 23.168 44.5052 23.4388 44.4219C23.8294 44.3021 24.1992 44.1042 24.5013 43.8334C24.6784 43.6771 24.8294 43.5 24.9596 43.3073C25.0482 43.1667 25.1263 43.0209 25.194 42.8646C25.5951 41.9115 25.4388 40.8334 25.1523 39.8698C25.1055 39.7084 25.0534 39.5521 25.0013 39.3906C24.9232 39.1771 24.8451 38.9636 24.7565 38.75C24.6471 38.4688 24.5221 38.1875 24.3971 37.9115C24.1628 37.3906 23.9128 36.875 23.668 36.3594C24.0534 36.2761 24.444 36.2084 24.8346 36.1302C25.1419 36.0677 25.4648 36 25.7565 35.8698C25.9701 35.7656 26.1784 35.6354 26.3711 35.4948C26.7357 35.2292 27.0586 34.9115 27.3346 34.5521C27.6003 34.2136 27.819 33.8438 28.0065 33.4636C28.168 33.1406 28.3034 32.8073 28.4388 32.4792C28.543 32.2292 28.6471 31.974 28.7669 31.7292C28.8763 31.5052 28.9961 31.2813 29.1628 31.0886C29.2357 31.0104 29.3138 30.9323 29.4076 30.875C29.5326 30.7969 29.6836 30.7761 29.8294 30.7656C30.0065 30.7604 30.1836 30.7709 30.3607 30.7865C30.5951 30.8073 30.8242 30.8334 31.0534 30.849C31.3763 30.875 31.694 30.8906 32.0169 30.8646C32.6263 30.8229 33.2253 30.6511 33.7461 30.3177C34.0534 30.1146 34.3294 29.8698 34.569 29.5834C34.7513 29.3646 34.9128 29.1198 35.0638 28.8698C35.2721 28.5209 35.4596 28.1511 35.5742 27.7604C35.6576 27.4636 35.694 27.1511 35.668 26.8438C35.6211 26.2813 35.3555 25.7709 34.9336 25.3906C34.7305 25.2084 34.4961 25.0625 34.2565 24.9271C34.2253 24.9115 34.194 24.8959 34.1628 24.8802C34.3086 24.5417 34.4544 24.2084 34.6003 23.8802C35.0742 22.8073 35.5638 21.7448 36.0638 20.6823C36.5742 19.6042 37.0951 18.5261 37.6419 17.4688C37.8607 17.0417 38.0794 16.6146 38.3294 16.2084C38.3607 16.1459 38.3971 16.0886 38.4388 16.0313C38.4388 16.0261 38.444 16.0209 38.444 16.0156C38.5013 15.9688 38.5638 15.9271 38.6211 15.8802C38.8086 15.7344 38.9961 15.5938 39.1888 15.4531C39.5065 15.2292 39.8346 15.0156 40.1836 14.8438C40.2721 14.8021 40.3659 14.7604 40.4596 14.7292L40.5221 14.9167C40.6003 15.2084 40.6576 15.5 40.7253 15.7917C40.8867 16.5261 41.0898 17.2865 41.5951 17.8646C41.6732 17.9531 41.7565 18.0365 41.8451 18.1146C41.9648 18.2188 42.0951 18.3125 42.2305 18.3906C42.4701 18.5209 42.7253 18.6146 42.9961 18.6615C43.3086 18.7136 43.6367 18.7031 43.9544 18.6354C44.1576 18.5938 44.3555 18.5313 44.5482 18.4584C45.1523 18.2136 45.6732 17.8125 46.0482 17.2761C46.3294 16.875 46.5117 16.4167 46.6367 15.9427C46.694 15.7136 46.7409 15.4844 46.7826 15.25C46.8242 15.0365 46.8607 14.8177 46.9128 14.6042C46.9388 14.4792 46.9753 14.3542 47.0221 14.2396C47.0482 14.1771 47.0794 14.1094 47.1367 14.0677V14.0625C47.1419 14.0625 47.1471 14.0573 47.1523 14.0573C47.1576 14.0521 47.168 14.0469 47.1784 14.0417C47.1992 14.0261 47.2253 14.0156 47.2513 14.0052C47.3294 13.9792 47.4128 13.9531 47.4909 13.9479C47.6003 13.9375 47.7044 13.9584 47.8086 13.9844C47.944 14.0209 48.0742 14.0677 48.2044 14.1198C48.2826 14.1511 48.3555 14.1823 48.4284 14.2136C48.5117 14.25 48.5951 14.2865 48.6784 14.3281C48.7878 14.375 48.8971 14.4271 49.0065 14.474C49.168 14.5469 49.3346 14.6198 49.4961 14.6875C49.9909 14.8854 50.5065 15.0469 51.0378 15.1042C51.8659 15.1927 52.6992 15.0261 53.4232 14.625C53.944 14.3334 54.3867 13.9271 54.7669 13.4688C55.0638 13.1094 55.319 12.7136 55.5638 12.3125C55.7721 11.9688 55.9701 11.6198 56.194 11.2865C56.3503 11.0521 56.5221 10.8125 56.7357 10.6302C56.8294 10.5469 56.9388 10.4844 57.0482 10.4219C57.194 10.3386 57.3451 10.2709 57.4961 10.2031C57.9648 9.99481 58.4544 9.83856 58.9388 9.6719C60.194 9.24481 61.4701 8.78127 62.4596 7.86981C62.6471 7.68752 62.8294 7.50002 62.9805 7.28127C63.2565 6.88544 63.4388 6.4271 63.5951 5.97398C63.6732 5.74481 63.7461 5.51565 63.8346 5.2969C63.8451 5.26565 63.8607 5.2396 63.8763 5.20835C63.9909 5.25523 64.1055 5.30731 64.2253 5.34377C64.543 5.44794 64.8711 5.49481 65.1992 5.47398C65.319 5.46356 65.4336 5.44794 65.5482 5.4219C66.7461 5.18231 67.7305 4.43752 68.7669 3.84377C69.0326 3.69273 69.3086 3.5521 69.6003 3.45835C69.7357 3.41669 69.8815 3.38023 70.0221 3.38544ZM18.069 37.6875C18.0951 37.7344 18.1211 37.7761 18.1471 37.8229C18.2669 38.0625 18.3659 38.3073 18.4596 38.5573C18.4701 38.5834 18.4805 38.6094 18.4909 38.6354C18.3555 38.375 18.2305 38.1094 18.1211 37.8386C18.1055 37.7865 18.0846 37.7396 18.069 37.6875ZM109.866 97.9427C110.007 98.3229 110.132 98.7031 110.22 99.099C110.319 99.5834 110.387 100.167 110.121 100.615C110.111 100.635 110.095 100.656 110.079 100.677C110.038 100.339 110.007 100.005 109.98 99.6667C109.939 99.0938 109.908 98.5156 109.866 97.9427Z" fill="#F39A1A"/>
</svg>
